<svg width="409" height="57" viewBox="0 0 409 57" fill="none" xmlns="http://www.w3.org/2000/svg">
<path d="M0.609573 0.40625H13.8596C17.4429 0.40625 20.1929 0.6875 22.1096 1.25C24.0471 1.8125 25.495 2.625 26.4533 3.6875C27.4325 4.75 28.0887 6.04167 28.4221 7.5625C28.7762 9.0625 28.9533 11.3958 28.9533 14.5625V18.9688C28.9533 22.1979 28.62 24.5521 27.9533 26.0312C27.2867 27.5104 26.0575 28.6458 24.2658 29.4375C22.495 30.2292 20.1721 30.625 17.2971 30.625H13.7658V51H0.609573V0.40625ZM13.7658 9.0625V21.9375C14.1408 21.9583 14.4637 21.9688 14.7346 21.9688C15.9429 21.9688 16.7762 21.6771 17.2346 21.0938C17.7137 20.4896 17.9533 19.25 17.9533 17.375V13.2188C17.9533 11.4896 17.6825 10.3646 17.1408 9.84375C16.5992 9.32292 15.4742 9.0625 13.7658 9.0625Z" fill="#FF0000"/>
<path d="M48.4912 9.53125L47.9912 14.9688C49.8246 11.0729 52.4808 9.01042 55.96 8.78125V23.375C53.6475 23.375 51.9496 23.6875 50.8662 24.3125C49.7829 24.9375 49.1162 25.8125 48.8662 26.9375C48.6162 28.0417 48.4912 30.6042 48.4912 34.625V51H35.8662V9.53125H48.4912ZM75.3104 0.40625V7H62.3104V0.40625H75.3104ZM75.3104 9.53125V51H62.3104V9.53125H75.3104ZM109.473 9.53125L103.567 51H87.0983L80.7546 9.53125H92.0358L95.5671 39.7812C95.8379 37.5729 96.2962 32.1562 96.9421 23.5312C97.3171 18.7188 97.7337 14.0521 98.1921 9.53125H109.473ZM126.167 25.5938H114.324V22.8125C114.324 19.6042 114.688 17.1354 115.417 15.4062C116.167 13.6562 117.657 12.1146 119.886 10.7812C122.115 9.44792 125.011 8.78125 128.574 8.78125C132.845 8.78125 136.063 9.54167 138.23 11.0625C140.397 12.5625 141.699 14.4167 142.136 16.625C142.574 18.8125 142.792 23.3333 142.792 30.1875V51H130.511V47.3125C129.74 48.7917 128.74 49.9062 127.511 50.6562C126.303 51.3854 124.855 51.75 123.167 51.75C120.959 51.75 118.928 51.1354 117.074 49.9062C115.24 48.6562 114.324 45.9375 114.324 41.75V38.3438C114.324 35.2396 114.813 33.125 115.792 32C116.772 30.875 119.199 29.5625 123.074 28.0625C127.22 26.4375 129.438 25.3438 129.73 24.7812C130.022 24.2188 130.167 23.0729 130.167 21.3438C130.167 19.1771 130.001 17.7708 129.667 17.125C129.355 16.4583 128.824 16.125 128.074 16.125C127.22 16.125 126.688 16.4062 126.48 16.9688C126.272 17.5104 126.167 18.9375 126.167 21.25V25.5938ZM130.167 31.2812C128.147 32.7604 126.97 34 126.636 35C126.324 36 126.167 37.4375 126.167 39.3125C126.167 41.4583 126.303 42.8438 126.574 43.4688C126.865 44.0938 127.428 44.4062 128.261 44.4062C129.053 44.4062 129.563 44.1667 129.792 43.6875C130.042 43.1875 130.167 41.8958 130.167 39.8125V31.2812ZM178.549 25.1875H166.643V20.4062C166.643 18.7396 166.507 17.6146 166.237 17.0312C165.966 16.4271 165.466 16.125 164.737 16.125C164.007 16.125 163.518 16.3854 163.268 16.9062C163.018 17.4271 162.893 18.5938 162.893 20.4062V39.9688C162.893 41.4479 163.08 42.5625 163.455 43.3125C163.83 44.0417 164.382 44.4062 165.112 44.4062C165.966 44.4062 166.539 44.0208 166.83 43.25C167.143 42.4792 167.299 41.0208 167.299 38.875V33.9375H178.549C178.528 37.25 178.403 39.7396 178.174 41.4062C177.966 43.0521 177.268 44.75 176.08 46.5C174.914 48.2292 173.382 49.5417 171.487 50.4375C169.591 51.3125 167.247 51.75 164.455 51.75C160.893 51.75 158.07 51.1458 155.987 49.9375C153.903 48.7083 152.424 47 151.549 44.8125C150.695 42.6042 150.268 39.4792 150.268 35.4375V23.6562C150.268 20.1354 150.622 17.4792 151.33 15.6875C152.039 13.8958 153.549 12.3021 155.862 10.9062C158.174 9.48958 160.987 8.78125 164.299 8.78125C167.591 8.78125 170.403 9.47917 172.737 10.875C175.07 12.2708 176.622 14.0312 177.393 16.1562C178.164 18.2812 178.549 21.2917 178.549 25.1875ZM212.275 9.53125L208.65 39.5312C208.087 44.2812 207.608 47.5208 207.212 49.25C206.837 50.9792 206.202 52.4062 205.306 53.5312C204.41 54.6562 203.16 55.4792 201.556 56C199.973 56.5417 197.431 56.8125 193.931 56.8125H186.275V50.1875C188.233 50.1875 189.493 50.0938 190.056 49.9062C190.618 49.6979 190.9 49.25 190.9 48.5625C190.9 48.2292 190.639 46.7812 190.118 44.2188L183.212 9.53125H194.681L198.806 37.5L200.806 9.53125H212.275ZM233.225 0.40625H246.475C250.059 0.40625 252.809 0.6875 254.725 1.25C256.663 1.8125 258.111 2.625 259.069 3.6875C260.048 4.75 260.705 6.04167 261.038 7.5625C261.392 9.0625 261.569 11.3958 261.569 14.5625V18.9688C261.569 22.1979 261.236 24.5521 260.569 26.0312C259.902 27.5104 258.673 28.6458 256.882 29.4375C255.111 30.2292 252.788 30.625 249.913 30.625H246.382V51H233.225V0.40625ZM246.382 9.0625V21.9375C246.757 21.9583 247.08 21.9688 247.35 21.9688C248.559 21.9688 249.392 21.6771 249.85 21.0938C250.33 20.4896 250.569 19.25 250.569 17.375V13.2188C250.569 11.4896 250.298 10.3646 249.757 9.84375C249.215 9.32292 248.09 9.0625 246.382 9.0625ZM297.045 24.0938V34.25C297.045 37.9792 296.857 40.7188 296.482 42.4688C296.107 44.1979 295.305 45.8229 294.076 47.3438C292.847 48.8438 291.263 49.9583 289.326 50.6875C287.409 51.3958 285.201 51.75 282.701 51.75C279.909 51.75 277.545 51.4479 275.607 50.8438C273.67 50.2188 272.159 49.2917 271.076 48.0625C270.013 46.8125 269.253 45.3125 268.795 43.5625C268.336 41.7917 268.107 39.1458 268.107 35.625V25C268.107 21.1458 268.524 18.1354 269.357 15.9688C270.19 13.8021 271.69 12.0625 273.857 10.75C276.024 9.4375 278.795 8.78125 282.17 8.78125C285.003 8.78125 287.43 9.20833 289.451 10.0625C291.492 10.8958 293.065 11.9896 294.17 13.3438C295.274 14.6979 296.024 16.0938 296.42 17.5312C296.836 18.9688 297.045 21.1562 297.045 24.0938ZM284.42 20.9688C284.42 18.8438 284.305 17.5104 284.076 16.9688C283.847 16.4062 283.357 16.125 282.607 16.125C281.857 16.125 281.357 16.4062 281.107 16.9688C280.857 17.5104 280.732 18.8438 280.732 20.9688V39.6875C280.732 41.6458 280.857 42.9271 281.107 43.5312C281.357 44.1146 281.847 44.4062 282.576 44.4062C283.326 44.4062 283.815 44.1354 284.045 43.5938C284.295 43.0521 284.42 41.8854 284.42 40.0938V20.9688ZM317.739 0.40625V51H304.739V0.40625H317.739ZM338.808 0.40625V7H325.808V0.40625H338.808ZM338.808 9.53125V51H325.808V9.53125H338.808ZM374.783 25.1875H362.877V20.4062C362.877 18.7396 362.742 17.6146 362.471 17.0312C362.2 16.4271 361.7 16.125 360.971 16.125C360.242 16.125 359.752 16.3854 359.502 16.9062C359.252 17.4271 359.127 18.5938 359.127 20.4062V39.9688C359.127 41.4479 359.315 42.5625 359.69 43.3125C360.065 44.0417 360.617 44.4062 361.346 44.4062C362.2 44.4062 362.773 44.0208 363.065 43.25C363.377 42.4792 363.533 41.0208 363.533 38.875V33.9375H374.783C374.762 37.25 374.637 39.7396 374.408 41.4062C374.2 43.0521 373.502 44.75 372.315 46.5C371.148 48.2292 369.617 49.5417 367.721 50.4375C365.825 51.3125 363.481 51.75 360.69 51.75C357.127 51.75 354.304 51.1458 352.221 49.9375C350.137 48.7083 348.658 47 347.783 44.8125C346.929 42.6042 346.502 39.4792 346.502 35.4375V23.6562C346.502 20.1354 346.856 17.4792 347.565 15.6875C348.273 13.8958 349.783 12.3021 352.096 10.9062C354.408 9.48958 357.221 8.78125 360.533 8.78125C363.825 8.78125 366.637 9.47917 368.971 10.875C371.304 12.2708 372.856 14.0312 373.627 16.1562C374.398 18.2812 374.783 21.2917 374.783 25.1875ZM408.509 9.53125L404.884 39.5312C404.321 44.2812 403.842 47.5208 403.446 49.25C403.071 50.9792 402.436 52.4062 401.54 53.5312C400.644 54.6562 399.394 55.4792 397.79 56C396.207 56.5417 393.665 56.8125 390.165 56.8125H382.509V50.1875C384.467 50.1875 385.727 50.0938 386.29 49.9062C386.852 49.6979 387.134 49.25 387.134 48.5625C387.134 48.2292 386.873 46.7812 386.352 44.2188L379.446 9.53125H390.915L395.04 37.5L397.04 9.53125H408.509Z" fill="black"/>
</svg>
