<svg width="96" height="96" viewBox="0 0 96 96" fill="none" xmlns="http://www.w3.org/2000/svg">
<rect width="96" height="96" rx="20" fill="#CBCBCB"/>
<mask id="mask0" mask-type="alpha" maskUnits="userSpaceOnUse" x="0" y="0" width="96" height="96">
<rect width="96" height="96" rx="20" fill="white"/>
</mask>
<g mask="url(#mask0)">
<rect width="96" height="96" fill="#017CFF"/>
<path fill-rule="evenodd" clip-rule="evenodd" d="M65.7778 58.6416V56.868H62.2222V55.0944H60.4445V51.5472H64V49.7736H69.3333V48H74.6667V46.2264H69.3333V44.4528H64V42.6792H60.4445V39.132H62.2222V37.3584H65.7778V35.5847H74.6667V37.3584H78.2222V39.132H80V42.6792H81.7778V51.5472H80V55.0944H78.2222V56.868H74.6667V58.6416H65.7778V58.6416Z" fill="#FFFF00"/>
<path fill-rule="evenodd" clip-rule="evenodd" d="M23.1111 58.6416V56.868H19.5555V55.0944H17.7778V51.5472H21.3333V49.7736H26.6667V48H32V46.2264H26.6667V44.4528H21.3333V42.6792H17.7778V39.132H19.5555V37.3584H23.1111V35.5847H32V37.3584H35.5555V39.132H37.3333V42.6792H39.1111V51.5472H37.3333V55.0944H35.5555V56.868H32V58.6416H23.1111V58.6416Z" fill="#FFFF00"/>
<rect x="56.8889" y="28.4903" width="24.8889" height="3.54721" fill="black"/>
<rect x="81.7778" y="32.0375" width="3.55556" height="3.54721" fill="black"/>
<rect x="88.8889" y="39.132" width="7.11111" height="3.54721" fill="black"/>
<rect y="39.132" width="7.11111" height="3.54721" fill="black"/>
<rect x="53.3333" y="32.0375" width="3.55556" height="3.54721" fill="black"/>
<rect x="46.2222" y="35.5847" width="3.55556" height="3.54721" fill="black"/>
<rect x="46.2222" y="39.132" width="3.55556" height="3.54721" fill="black"/>
<rect x="49.7778" y="35.5847" width="3.55556" height="21.2833" fill="black"/>
<rect x="81.7778" y="56.868" width="3.55556" height="3.54721" fill="black"/>
<rect x="53.3333" y="56.868" width="3.55556" height="3.54721" fill="black"/>
<rect x="78.2222" y="60.4153" width="3.55556" height="3.54721" fill="black"/>
<rect x="56.8889" y="60.4153" width="3.55556" height="3.54721" fill="black"/>
<rect x="60.4445" y="63.9625" width="17.7778" height="3.54721" fill="black"/>
<rect x="85.3333" y="35.5847" width="3.55556" height="21.2833" fill="black"/>
<rect x="14.2222" y="28.4903" width="24.8889" height="3.54721" fill="black"/>
<rect x="39.1111" y="32.0375" width="3.55556" height="3.54721" fill="black"/>
<rect x="10.6667" y="32.0375" width="3.55556" height="3.54721" fill="black"/>
<rect x="7.11108" y="35.5847" width="3.55556" height="21.2833" fill="black"/>
<rect x="39.1111" y="56.868" width="3.55556" height="3.54721" fill="black"/>
<rect x="39.1111" y="56.868" width="3.55556" height="3.54721" fill="black"/>
<rect x="10.6667" y="56.868" width="3.55556" height="3.54721" fill="black"/>
<rect x="35.5555" y="60.4153" width="3.55556" height="3.54721" fill="black"/>
<rect x="14.2222" y="60.4153" width="3.55556" height="3.54721" fill="black"/>
<rect x="17.7778" y="63.9625" width="17.7778" height="3.54721" fill="black"/>
<rect x="42.6667" y="35.5847" width="3.55556" height="21.2833" fill="black"/>
</g>
</svg>
