<svg width="96" height="96" viewBox="0 0 96 96" fill="none" xmlns="http://www.w3.org/2000/svg">
<mask id="mask0" mask-type="alpha" maskUnits="userSpaceOnUse" x="0" y="0" width="96" height="96">
<rect width="96" height="96" rx="20" fill="#EEEEEE"/>
</mask>
<g mask="url(#mask0)">
<rect width="96" height="96" fill="#3000B9"/>
<rect width="96" height="96" fill="url(#paint0_linear)"/>
<path d="M8.8125 10.875C8.8125 10.3572 9.23223 9.9375 9.75 9.9375H30.9144C31.4322 9.9375 31.8519 10.3572 31.8519 10.875V20.5199C31.8519 21.0377 31.4322 21.4574 30.9144 21.4574H9.75C9.23223 21.4574 8.8125 21.0377 8.8125 20.5199V10.875Z" fill="#FF1B1B"/>
<path d="M36.4598 10.875C36.4598 10.3572 36.8796 9.9375 37.3973 9.9375H58.5618C59.0795 9.9375 59.4993 10.3572 59.4993 10.875V20.5199C59.4993 21.0377 59.0795 21.4574 58.5618 21.4574H37.3973C36.8796 21.4574 36.4598 21.0377 36.4598 20.5199V10.875Z" fill="#FF1B1B"/>
<path d="M64.1071 10.875C64.1071 10.3572 64.5268 9.9375 65.0446 9.9375H86.209C86.7268 9.9375 87.1465 10.3572 87.1465 10.875V20.5199C87.1465 21.0377 86.7268 21.4574 86.209 21.4574H65.0446C64.5269 21.4574 64.1071 21.0377 64.1071 20.5199V10.875Z" fill="#FF1B1B"/>
<path d="M8.8125 27.0028C8.8125 26.4851 9.23223 26.0653 9.75 26.0653H30.9144C31.4322 26.0653 31.8519 26.4851 31.8519 27.0028V36.6477C31.8519 37.1655 31.4322 37.5852 30.9144 37.5852H9.75C9.23223 37.5852 8.8125 37.1655 8.8125 36.6477V27.0028Z" fill="#FFD600"/>
<path d="M36.4598 27.0028C36.4598 26.4851 36.8796 26.0653 37.3973 26.0653H58.5618C59.0795 26.0653 59.4993 26.4851 59.4993 27.0028V36.6477C59.4993 37.1655 59.0795 37.5852 58.5618 37.5852H37.3973C36.8796 37.5852 36.4598 37.1655 36.4598 36.6477V27.0028Z" fill="#FFD600"/>
<path d="M64.1071 27.0028C64.1071 26.4851 64.5268 26.0653 65.0446 26.0653H86.209C86.7268 26.0653 87.1465 26.4851 87.1465 27.0028V36.6477C87.1465 37.1655 86.7268 37.5852 86.209 37.5852H65.0446C64.5269 37.5852 64.1071 37.1655 64.1071 36.6477V27.0028Z" fill="#FFD600"/>
<path d="M8.8125 43.1307C8.8125 42.6129 9.23223 42.1932 9.75 42.1932H30.9144C31.4322 42.1932 31.8519 42.6129 31.8519 43.1307V52.7756C31.8519 53.2933 31.4322 53.7131 30.9144 53.7131H9.75C9.23223 53.7131 8.8125 53.2933 8.8125 52.7756V43.1307Z" fill="#7AFF3C"/>
<path d="M36.4598 43.1307C36.4598 42.6129 36.8796 42.1932 37.3973 42.1932H58.5618C59.0795 42.1932 59.4993 42.6129 59.4993 43.1307V52.7756C59.4993 53.2933 59.0795 53.7131 58.5618 53.7131H37.3973C36.8796 53.7131 36.4598 53.2933 36.4598 52.7756V43.1307Z" fill="#7AFF3C"/>
<path d="M64.1071 43.1307C64.1071 42.6129 64.5268 42.1932 65.0446 42.1932H86.209C86.7268 42.1932 87.1465 42.6129 87.1465 43.1307V52.7756C87.1465 53.2933 86.7268 53.7131 86.209 53.7131H65.0446C64.5269 53.7131 64.1071 53.2933 64.1071 52.7756V43.1307Z" fill="#7AFF3C"/>
<path d="M8.8125 59.2585C8.8125 58.7408 9.23223 58.321 9.75 58.321H30.9144C31.4322 58.321 31.8519 58.7408 31.8519 59.2585V68.9034C31.8519 69.4212 31.4322 69.8409 30.9144 69.8409H9.75C9.23223 69.8409 8.8125 69.4212 8.8125 68.9034V59.2585Z" fill="#46B1FF"/>
<path d="M36.4598 59.2585C36.4598 58.7408 36.8796 58.321 37.3973 58.321H58.5618C59.0795 58.321 59.4993 58.7408 59.4993 59.2585V68.9034C59.4993 69.4212 59.0795 69.8409 58.5618 69.8409H37.3973C36.8796 69.8409 36.4598 69.4212 36.4598 68.9034V59.2585Z" fill="#46B1FF"/>
<path d="M64.1071 59.2585C64.1071 58.7408 64.5268 58.321 65.0446 58.321H86.209C86.7268 58.321 87.1465 58.7408 87.1465 59.2585V68.9034C87.1465 69.4212 86.7268 69.8409 86.209 69.8409H65.0446C64.5269 69.8409 64.1071 69.4212 64.1071 68.9034V59.2585Z" fill="#46B1FF"/>
<path d="M8.8125 75.3864C8.8125 74.8686 9.23223 74.4489 9.75 74.4489H30.9144C31.4322 74.4489 31.8519 74.8686 31.8519 75.3864V85.0312C31.8519 85.549 31.4322 85.9687 30.9144 85.9687H9.75C9.23223 85.9687 8.8125 85.549 8.8125 85.0312V75.3864Z" fill="#E859FF"/>
<path d="M36.4598 75.3864C36.4598 74.8686 36.8796 74.4489 37.3973 74.4489H58.5618C59.0795 74.4489 59.4993 74.8686 59.4993 75.3864V85.0312C59.4993 85.549 59.0795 85.9687 58.5618 85.9687H37.3973C36.8796 85.9687 36.4598 85.549 36.4598 85.0312V75.3864Z" fill="#E859FF"/>
<path d="M64.1071 75.3864C64.1071 74.8686 64.5268 74.4489 65.0446 74.4489H86.209C86.7268 74.4489 87.1465 74.8686 87.1465 75.3864V85.0312C87.1465 85.549 86.7268 85.9687 86.209 85.9687H65.0446C64.5269 85.9687 64.1071 85.549 64.1071 85.0312V75.3864Z" fill="#E859FF"/>
</g>
<defs>
<linearGradient id="paint0_linear" x1="48" y1="0" x2="48" y2="96" gradientUnits="userSpaceOnUse">
<stop/>
<stop offset="1" stop-color="white" stop-opacity="0"/>
</linearGradient>
</defs>
</svg>
