<svg width="600" height="105" viewBox="0 0 600 105" fill="none" xmlns="http://www.w3.org/2000/svg">
<path fill-rule="evenodd" clip-rule="evenodd" d="M59.5351 2.10197V68.994C59.5351 76.5776 59.2879 81.9046 58.7933 84.9751C58.2987 88.0457 56.8356 91.1986 54.4039 94.434C51.9722 97.6694 48.7677 100.122 44.7905 101.791C40.8132 103.46 36.125 104.295 30.7258 104.295C24.7496 104.295 19.4741 103.306 14.8992 101.327C10.3243 99.3489 6.90353 96.773 4.63669 93.5994C2.36985 90.4258 1.03038 87.0771 0.618226 83.5532C0.206073 80.0293 0 72.621 0 61.328V2.10197H26.0273V77.1546C26.0273 81.5234 26.2643 84.3157 26.7383 85.5315C27.2122 86.7474 28.1705 87.3553 29.613 87.3553C31.2616 87.3553 32.3229 86.6856 32.7969 85.3461C33.2709 84.0066 33.5078 80.8433 33.5078 75.8563V2.10197H59.5351ZM71.5905 2.10197H91.0647C103.635 2.10197 112.136 2.67897 116.566 3.833C120.997 4.98703 124.366 6.8829 126.674 9.52068C128.983 12.1585 130.425 15.095 131.002 18.3304C131.579 21.5658 131.868 27.9231 131.868 37.4027V72.4561C131.868 81.441 131.445 87.448 130.6 90.4773C129.755 93.5067 128.282 95.8765 126.18 97.5869C124.078 99.2974 121.481 100.493 118.39 101.173C115.299 101.853 110.642 102.193 104.418 102.193H71.5905V2.10197ZM97.6179 19.2268V85.0679C101.368 85.0679 103.676 84.3157 104.542 82.8113C105.408 81.307 105.84 77.2164 105.84 70.5396V31.6532C105.84 27.1195 105.696 24.2139 105.407 22.9362C105.119 21.6585 104.46 20.7209 103.429 20.1232C102.399 19.5256 100.462 19.2268 97.6179 19.2268ZM203.025 60.7098C203.025 70.7663 202.788 77.8861 202.314 82.0695C201.84 86.2528 200.357 90.0755 197.863 93.5376C195.37 96.9996 192 99.658 187.755 101.513C183.51 103.367 178.564 104.295 172.918 104.295C167.56 104.295 162.748 103.419 158.482 101.667C154.216 99.9156 150.785 97.2881 148.189 93.7849C145.592 90.2816 144.047 86.4692 143.552 82.3477C143.057 78.2261 142.81 71.0136 142.81 60.7098V43.5849C142.81 33.5284 143.047 26.4086 143.521 22.2252C143.995 18.0419 145.479 14.2192 147.972 10.7571C150.466 7.29505 153.835 4.6367 158.08 2.78202C162.326 0.927329 167.271 0 172.918 0C178.276 0 183.088 0.875811 187.353 2.62746C191.619 4.37911 195.05 7.00654 197.647 10.5098C200.243 14.0131 201.789 17.8255 202.283 21.947C202.778 26.0685 203.025 33.2811 203.025 43.5849V60.7098ZM176.998 27.8202C176.998 23.1628 176.74 20.1851 176.225 18.8868C175.71 17.5885 174.649 16.9394 173.041 16.9394C171.681 16.9394 170.641 17.4649 169.919 18.5159C169.198 19.5669 168.837 22.6683 168.837 27.8202V74.558C168.837 80.3694 169.074 83.9551 169.548 85.3152C170.022 86.6753 171.125 87.3553 172.856 87.3553C174.628 87.3553 175.762 86.5722 176.256 85.006C176.751 83.4399 176.998 79.7099 176.998 73.8162V27.8202ZM272.823 2.10197V102.193H250.01L236.471 56.6913V102.193H214.71V2.10197H236.471L251.061 47.1706V2.10197H272.823ZM347.257 2.10197L332.358 47.2943L348.679 102.193H321.786L311.277 59.2878V102.193H285.249V2.10197H311.277V40.9884L322.837 2.10197H347.257ZM412.357 60.7098C412.357 70.7663 412.12 77.8861 411.646 82.0695C411.172 86.2528 409.688 90.0755 407.194 93.5376C404.701 96.9996 401.332 99.658 397.086 101.513C392.841 103.367 387.895 104.295 382.249 104.295C376.891 104.295 372.079 103.419 367.813 101.667C363.548 99.9156 360.117 97.2881 357.52 93.7849C354.923 90.2816 353.378 86.4692 352.883 82.3477C352.389 78.2261 352.141 71.0136 352.141 60.7098V43.5849C352.141 33.5284 352.378 26.4086 352.852 22.2252C353.326 18.0419 354.81 14.2192 357.304 10.7571C359.797 7.29505 363.166 4.6367 367.412 2.78202C371.657 0.927329 376.602 0 382.249 0C387.607 0 392.419 0.875811 396.685 2.62746C400.95 4.37911 404.381 7.00654 406.978 10.5098C409.575 14.0131 411.12 17.8255 411.615 21.947C412.109 26.0685 412.357 33.2811 412.357 43.5849V60.7098ZM386.329 27.8202C386.329 23.1628 386.072 20.1851 385.556 18.8868C385.041 17.5885 383.98 16.9394 382.373 16.9394C381.013 16.9394 379.972 17.4649 379.251 18.5159C378.529 19.5669 378.169 22.6683 378.169 27.8202V74.558C378.169 80.3694 378.406 83.9551 378.88 85.3152C379.354 86.6753 380.456 87.3553 382.187 87.3553C383.959 87.3553 385.093 86.5722 385.587 85.006C386.082 83.4399 386.329 79.7099 386.329 73.8162V27.8202ZM482.154 2.10197V102.193H459.342L445.803 56.6913L445.886 76.3542H424.124L424.041 2.10197H445.803L460.393 47.1706V2.10197H482.154ZM494.581 2.10197H537.98V22.1325H520.608V41.112H536.867V60.1534H520.608V82.1622H539.711V102.193H494.581V2.10197ZM599.926 2.10197V22.1325H584.471V102.193H558.443V22.1325H543.049V2.10197H599.926Z" fill="black"/>
<rect x="424.003" y="80.4617" width="21.796" height="21.796" fill="#FF0000"/>
</svg>
