<svg width="225" height="54" viewBox="0 0 225 54" fill="none" xmlns="http://www.w3.org/2000/svg">
<path d="M31.7579 23.4688H18.6017V14.6562C18.6017 12.0938 18.4558 10.5 18.1642 9.875C17.8933 9.22917 17.2787 8.90625 16.3204 8.90625C15.2371 8.90625 14.5496 9.29167 14.2579 10.0625C13.9662 10.8333 13.8204 12.5 13.8204 15.0625V38.5625C13.8204 41.0208 13.9662 42.625 14.2579 43.375C14.5496 44.125 15.2058 44.5 16.2267 44.5C17.2058 44.5 17.8412 44.125 18.1329 43.375C18.4454 42.625 18.6017 40.8646 18.6017 38.0938V31.75H31.7579V33.7188C31.7579 38.9479 31.3829 42.6562 30.6329 44.8438C29.9037 47.0312 28.2683 48.9479 25.7267 50.5938C23.2058 52.2396 20.0912 53.0625 16.3829 53.0625C12.5287 53.0625 9.35165 52.3646 6.85165 50.9688C4.35165 49.5729 2.6954 47.6458 1.8829 45.1875C1.0704 42.7083 0.664154 38.9896 0.664154 34.0312V19.25C0.664154 15.6042 0.789154 12.875 1.03915 11.0625C1.28915 9.22917 2.02874 7.46875 3.2579 5.78125C4.5079 4.09375 6.22665 2.77083 8.41415 1.8125C10.6225 0.833333 13.1537 0.34375 16.0079 0.34375C19.8829 0.34375 23.0808 1.09375 25.6017 2.59375C28.1225 4.09375 29.7787 5.96875 30.5704 8.21875C31.3621 10.4479 31.7579 13.9271 31.7579 18.6562V23.4688Z" fill="#FF0000"/>
<path d="M68.1708 25.0938V35.25C68.1708 38.9792 67.9833 41.7188 67.6083 43.4688C67.2333 45.1979 66.4312 46.8229 65.2021 48.3438C63.9729 49.8438 62.3896 50.9583 60.4521 51.6875C58.5354 52.3958 56.3271 52.75 53.8271 52.75C51.0354 52.75 48.6708 52.4479 46.7333 51.8438C44.7958 51.2188 43.2854 50.2917 42.2021 49.0625C41.1396 47.8125 40.3792 46.3125 39.9208 44.5625C39.4625 42.7917 39.2333 40.1458 39.2333 36.625V26C39.2333 22.1458 39.65 19.1354 40.4833 16.9688C41.3167 14.8021 42.8167 13.0625 44.9833 11.75C47.15 10.4375 49.9208 9.78125 53.2958 9.78125C56.1292 9.78125 58.5562 10.2083 60.5771 11.0625C62.6187 11.8958 64.1917 12.9896 65.2958 14.3438C66.4 15.6979 67.15 17.0938 67.5458 18.5312C67.9625 19.9688 68.1708 22.1562 68.1708 25.0938ZM55.5458 21.9688C55.5458 19.8438 55.4312 18.5104 55.2021 17.9688C54.9729 17.4062 54.4833 17.125 53.7333 17.125C52.9833 17.125 52.4833 17.4062 52.2333 17.9688C51.9833 18.5104 51.8583 19.8438 51.8583 21.9688V40.6875C51.8583 42.6458 51.9833 43.9271 52.2333 44.5312C52.4833 45.1146 52.9729 45.4062 53.7021 45.4062C54.4521 45.4062 54.9417 45.1354 55.1708 44.5938C55.4208 44.0521 55.5458 42.8854 55.5458 41.0938V21.9688ZM88.7087 10.5312L88.49 14.3438C89.4067 12.8229 90.5212 11.6875 91.8337 10.9375C93.1671 10.1667 94.6983 9.78125 96.4275 9.78125C98.5942 9.78125 100.365 10.2917 101.74 11.3125C103.115 12.3333 104 13.625 104.396 15.1875C104.792 16.7292 104.99 19.3125 104.99 22.9375V52H92.365V23.2812C92.365 20.4271 92.2712 18.6875 92.0837 18.0625C91.8962 17.4375 91.3754 17.125 90.5212 17.125C89.6254 17.125 89.0629 17.4896 88.8337 18.2188C88.6046 18.9271 88.49 20.8438 88.49 23.9688V52H75.865V10.5312H88.7087ZM126.184 5V11.5312H129.59V18.0938H126.184V40.2812C126.184 43.0104 126.32 44.5312 126.59 44.8438C126.882 45.1562 128.059 45.3125 130.122 45.3125V52H125.028C122.153 52 120.101 51.8854 118.872 51.6562C117.642 51.4062 116.559 50.8542 115.622 50C114.684 49.125 114.101 48.1354 113.872 47.0312C113.642 45.9062 113.528 43.2812 113.528 39.1562V18.0938H110.809V11.5312H113.528V5H126.184ZM147.16 26.5938H135.316V23.8125C135.316 20.6042 135.68 18.1354 136.41 16.4062C137.16 14.6562 138.649 13.1146 140.878 11.7812C143.107 10.4479 146.003 9.78125 149.566 9.78125C153.837 9.78125 157.055 10.5417 159.222 12.0625C161.389 13.5625 162.691 15.4167 163.128 17.625C163.566 19.8125 163.785 24.3333 163.785 31.1875V52H151.503V48.3125C150.732 49.7917 149.732 50.9062 148.503 51.6562C147.295 52.3854 145.847 52.75 144.16 52.75C141.951 52.75 139.92 52.1354 138.066 50.9062C136.232 49.6562 135.316 46.9375 135.316 42.75V39.3438C135.316 36.2396 135.805 34.125 136.785 33C137.764 31.875 140.191 30.5625 144.066 29.0625C148.212 27.4375 150.43 26.3438 150.722 25.7812C151.014 25.2188 151.16 24.0729 151.16 22.3438C151.16 20.1771 150.993 18.7708 150.66 18.125C150.347 17.4583 149.816 17.125 149.066 17.125C148.212 17.125 147.68 17.4062 147.472 17.9688C147.264 18.5104 147.16 19.9375 147.16 22.25V26.5938ZM151.16 32.2812C149.139 33.7604 147.962 35 147.628 36C147.316 37 147.16 38.4375 147.16 40.3125C147.16 42.4583 147.295 43.8438 147.566 44.4688C147.857 45.0938 148.42 45.4062 149.253 45.4062C150.045 45.4062 150.555 45.1667 150.785 44.6875C151.035 44.1875 151.16 42.8958 151.16 40.8125V32.2812ZM199.541 26.1875H187.635V21.4062C187.635 19.7396 187.5 18.6146 187.229 18.0312C186.958 17.4271 186.458 17.125 185.729 17.125C185 17.125 184.51 17.3854 184.26 17.9062C184.01 18.4271 183.885 19.5938 183.885 21.4062V40.9688C183.885 42.4479 184.073 43.5625 184.448 44.3125C184.823 45.0417 185.375 45.4062 186.104 45.4062C186.958 45.4062 187.531 45.0208 187.823 44.25C188.135 43.4792 188.291 42.0208 188.291 39.875V34.9375H199.541C199.52 38.25 199.395 40.7396 199.166 42.4062C198.958 44.0521 198.26 45.75 197.073 47.5C195.906 49.2292 194.375 50.5417 192.479 51.4375C190.583 52.3125 188.239 52.75 185.448 52.75C181.885 52.75 179.062 52.1458 176.979 50.9375C174.895 49.7083 173.416 48 172.541 45.8125C171.687 43.6042 171.26 40.4792 171.26 36.4375V24.6562C171.26 21.1354 171.614 18.4792 172.323 16.6875C173.031 14.8958 174.541 13.3021 176.854 11.9062C179.166 10.4896 181.979 9.78125 185.291 9.78125C188.583 9.78125 191.395 10.4792 193.729 11.875C196.062 13.2708 197.614 15.0312 198.385 17.1562C199.156 19.2812 199.541 22.2917 199.541 26.1875ZM220.142 5V11.5312H223.548V18.0938H220.142V40.2812C220.142 43.0104 220.277 44.5312 220.548 44.8438C220.84 45.1562 222.017 45.3125 224.079 45.3125V52H218.985C216.11 52 214.058 51.8854 212.829 51.6562C211.6 51.4062 210.517 50.8542 209.579 50C208.642 49.125 208.058 48.1354 207.829 47.0312C207.6 45.9062 207.485 43.2812 207.485 39.1562V18.0938H204.767V11.5312H207.485V5H220.142Z" fill="black"/>
</svg>
