<svg width="96" height="96" viewBox="0 0 96 96" fill="none" xmlns="http://www.w3.org/2000/svg">
<rect width="96" height="96" rx="20" fill="#999999"/>
<path d="M75.4286 67.8571C75.4286 68.4643 74.8929 69 74.2857 69H21.7143C21.1071 69 20.5714 68.4643 20.5714 67.8571V40.4286C21.3214 41.2857 22.1429 42.0714 23.0357 42.7857C28.1429 46.7143 33.2857 50.7143 38.25 54.8571C40.9286 57.1071 44.25 59.8571 47.9643 59.8571H48H48.0357C51.75 59.8571 55.0714 57.1071 57.75 54.8571C62.7143 50.7143 67.8571 46.7143 72.9643 42.7857C73.8571 42.0714 74.6786 41.2857 75.4286 40.4286V67.8571ZM75.4286 30.3214C75.4286 33.3571 72.5 37.3214 70.1786 39.1429C65.3929 42.8929 60.6071 46.6786 55.8571 50.4643C53.9643 52 50.5357 55.2857 48.0357 55.2857H48H47.9643C45.4643 55.2857 42.0357 52 40.1429 50.4643C35.3929 46.6786 30.6071 42.8929 25.8214 39.1429C22.6071 36.6071 20.5714 33.0714 20.5714 29C20.5714 28.3929 21.1071 27.8571 21.7143 27.8571H74.2857C75.6429 27.8571 75.4286 29.4286 75.4286 30.3214ZM80 29C80 25.8571 77.4286 23.2857 74.2857 23.2857H21.7143C18.5714 23.2857 16 25.8571 16 29V67.8571C16 71 18.5714 73.5714 21.7143 73.5714H74.2857C77.4286 73.5714 80 71 80 67.8571V29Z" fill="white"/>
</svg>
