<svg width="166" height="52" viewBox="0 0 166 52" fill="none" xmlns="http://www.w3.org/2000/svg">
<path d="M25.8583 0.40625L33.3896 51H19.9208L19.2646 41.9062H14.5458L13.7646 51H0.139587L6.82709 0.40625H25.8583ZM18.8896 32.9375C18.2229 27.2083 17.5563 20.1354 16.8896 11.7188C15.5563 21.3854 14.7229 28.4583 14.3896 32.9375H18.8896Z" fill="#FF0000"/>
<path d="M51.3963 0.40625V12.375C52.4379 11.1667 53.5942 10.2708 54.865 9.6875C56.1567 9.08333 57.5525 8.78125 59.0525 8.78125C60.7817 8.78125 62.2817 9.05208 63.5525 9.59375C64.8233 10.1354 65.7921 10.8958 66.4588 11.875C67.1254 12.8542 67.5213 13.8125 67.6463 14.75C67.7921 15.6875 67.865 17.6875 67.865 20.75V39.4375C67.865 42.4792 67.6567 44.75 67.24 46.25C66.8442 47.7292 65.8963 49.0208 64.3963 50.125C62.8963 51.2083 61.115 51.75 59.0525 51.75C57.5733 51.75 56.1879 51.4271 54.8963 50.7812C53.6254 50.1354 52.4588 49.1667 51.3963 47.875L50.5838 51H38.7713V0.40625H51.3963ZM55.24 21.3125C55.24 19.1667 55.1046 17.7708 54.8338 17.125C54.5629 16.4583 54.0317 16.125 53.24 16.125C52.4692 16.125 51.9692 16.4167 51.74 17C51.5108 17.5625 51.3963 19 51.3963 21.3125V39.1875C51.3963 41.4167 51.5213 42.8438 51.7713 43.4688C52.0421 44.0938 52.5629 44.4062 53.3338 44.4062C54.1254 44.4062 54.6358 44.0833 54.865 43.4375C55.115 42.7917 55.24 41.2396 55.24 38.7812V21.3125ZM104.09 24.0938V34.25C104.09 37.9792 103.903 40.7188 103.528 42.4688C103.153 44.1979 102.351 45.8229 101.122 47.3438C99.8925 48.8438 98.3092 49.9583 96.3717 50.6875C94.455 51.3958 92.2467 51.75 89.7467 51.75C86.955 51.75 84.5904 51.4479 82.6529 50.8438C80.7154 50.2188 79.205 49.2917 78.1217 48.0625C77.0592 46.8125 76.2988 45.3125 75.8404 43.5625C75.3821 41.7917 75.1529 39.1458 75.1529 35.625V25C75.1529 21.1458 75.5696 18.1354 76.4029 15.9688C77.2363 13.8021 78.7363 12.0625 80.9029 10.75C83.0696 9.4375 85.8404 8.78125 89.2154 8.78125C92.0488 8.78125 94.4758 9.20833 96.4967 10.0625C98.5383 10.8958 100.111 11.9896 101.215 13.3438C102.32 14.6979 103.07 16.0938 103.465 17.5312C103.882 18.9688 104.09 21.1562 104.09 24.0938ZM91.4654 20.9688C91.4654 18.8438 91.3508 17.5104 91.1217 16.9688C90.8925 16.4062 90.4029 16.125 89.6529 16.125C88.9029 16.125 88.4029 16.4062 88.1529 16.9688C87.9029 17.5104 87.7779 18.8438 87.7779 20.9688V39.6875C87.7779 41.6458 87.9029 42.9271 88.1529 43.5312C88.4029 44.1146 88.8925 44.4062 89.6217 44.4062C90.3717 44.4062 90.8613 44.1354 91.0904 43.5938C91.3404 43.0521 91.4654 41.8854 91.4654 40.0938V20.9688ZM140.691 9.53125V51H127.847L128.066 47.5625C127.191 48.9583 126.108 50.0104 124.816 50.7188C123.545 51.4062 122.076 51.75 120.41 51.75C118.514 51.75 116.941 51.4167 115.691 50.75C114.441 50.0833 113.514 49.1979 112.91 48.0938C112.326 46.9896 111.962 45.8438 111.816 44.6562C111.67 43.4479 111.597 41.0625 111.597 37.5V9.53125H124.222V37.75C124.222 40.9792 124.316 42.8958 124.503 43.5C124.712 44.1042 125.253 44.4062 126.128 44.4062C127.066 44.4062 127.618 44.0938 127.785 43.4688C127.972 42.8438 128.066 40.8333 128.066 37.4375V9.53125H140.691ZM162.041 4V10.5312H165.448V17.0938H162.041V39.2812C162.041 42.0104 162.177 43.5312 162.448 43.8438C162.739 44.1562 163.916 44.3125 165.979 44.3125V51H160.885C158.01 51 155.958 50.8854 154.729 50.6562C153.5 50.4062 152.416 49.8542 151.479 49C150.541 48.125 149.958 47.1354 149.729 46.0312C149.5 44.9062 149.385 42.2812 149.385 38.1562V17.0938H146.666V10.5312H149.385V4H162.041Z" fill="black"/>
</svg>
