<svg width="221" height="57" viewBox="0 0 221 57" fill="none" xmlns="http://www.w3.org/2000/svg">
<path d="M25.8171 0.40625L33.3483 51H19.8796L19.2233 41.9062H14.5046L13.7233 51H0.0983353L6.78584 0.40625H25.8171ZM18.8483 32.9375C18.1817 27.2083 17.515 20.1354 16.8483 11.7188C15.515 21.3854 14.6817 28.4583 14.3483 32.9375H18.8483Z" fill="#FF0000"/>
<path d="M66.6363 25.1875H54.73V20.4062C54.73 18.7396 54.5946 17.6146 54.3238 17.0312C54.0529 16.4271 53.5529 16.125 52.8238 16.125C52.0946 16.125 51.605 16.3854 51.355 16.9062C51.105 17.4271 50.98 18.5938 50.98 20.4062V39.9688C50.98 41.4479 51.1675 42.5625 51.5425 43.3125C51.9175 44.0417 52.4696 44.4062 53.1988 44.4062C54.0529 44.4062 54.6258 44.0208 54.9175 43.25C55.23 42.4792 55.3863 41.0208 55.3863 38.875V33.9375H66.6363C66.6154 37.25 66.4904 39.7396 66.2613 41.4062C66.0529 43.0521 65.355 44.75 64.1675 46.5C63.0008 48.2292 61.4696 49.5417 59.5738 50.4375C57.6779 51.3125 55.3342 51.75 52.5425 51.75C48.98 51.75 46.1571 51.1458 44.0738 49.9375C41.9904 48.7083 40.5113 47 39.6363 44.8125C38.7821 42.6042 38.355 39.4792 38.355 35.4375V23.6562C38.355 20.1354 38.7092 17.4792 39.4175 15.6875C40.1258 13.8958 41.6363 12.3021 43.9488 10.9062C46.2613 9.48958 49.0738 8.78125 52.3863 8.78125C55.6779 8.78125 58.4904 9.47917 60.8238 10.875C63.1571 12.2708 64.7092 14.0312 65.48 16.1562C66.2508 18.2812 66.6363 21.2917 66.6363 25.1875ZM87.2367 4V10.5312H90.6429V17.0938H87.2367V39.2812C87.2367 42.0104 87.3721 43.5312 87.6429 43.8438C87.9346 44.1562 89.1117 44.3125 91.1742 44.3125V51H86.0804C83.2054 51 81.1533 50.8854 79.9242 50.6562C78.695 50.4062 77.6117 49.8542 76.6742 49C75.7367 48.125 75.1533 47.1354 74.9242 46.0312C74.695 44.9062 74.5804 42.2812 74.5804 38.1562V17.0938H71.8617V10.5312H74.5804V4H87.2367ZM109.931 0.40625V7H96.9308V0.40625H109.931ZM109.931 9.53125V51H96.9308V9.53125H109.931ZM144.094 9.53125L138.188 51H121.719L115.375 9.53125H126.656L130.188 39.7812C130.458 37.5729 130.917 32.1562 131.563 23.5312C131.938 18.7188 132.354 14.0521 132.813 9.53125H144.094ZM162.507 0.40625V7H149.507V0.40625H162.507ZM162.507 9.53125V51H149.507V9.53125H162.507ZM183.888 4V10.5312H187.295V17.0938H183.888V39.2812C183.888 42.0104 184.024 43.5312 184.295 43.8438C184.586 44.1562 185.763 44.3125 187.826 44.3125V51H182.732C179.857 51 177.805 50.8854 176.576 50.6562C175.347 50.4062 174.263 49.8542 173.326 49C172.388 48.125 171.805 47.1354 171.576 46.0312C171.347 44.9062 171.232 42.2812 171.232 38.1562V17.0938H168.513V10.5312H171.232V4H183.888ZM220.02 9.53125L216.395 39.5312C215.832 44.2812 215.353 47.5208 214.957 49.25C214.582 50.9792 213.947 52.4062 213.051 53.5312C212.155 54.6562 210.905 55.4792 209.301 56C207.718 56.5417 205.176 56.8125 201.676 56.8125H194.02V50.1875C195.978 50.1875 197.239 50.0938 197.801 49.9062C198.364 49.6979 198.645 49.25 198.645 48.5625C198.645 48.2292 198.385 46.7812 197.864 44.2188L190.957 9.53125H202.426L206.551 37.5L208.551 9.53125H220.02Z" fill="black"/>
</svg>
