<svg width="97" height="96" viewBox="0 0 97 96" fill="none" xmlns="http://www.w3.org/2000/svg">
<mask id="mask0" mask-type="alpha" maskUnits="userSpaceOnUse" x="0" y="0" width="97" height="96">
<rect x="0.0413208" width="96" height="96" rx="20" fill="#EEEEEE"/>
</mask>
<g mask="url(#mask0)">
<rect width="96" height="96" fill="white"/>
<path d="M0 27H96V96H0V27Z" fill="#EB5757"/>
<path d="M9.811 30.7955V32.102C9.93543 31.9871 10.0694 31.901 10.213 31.8436C10.359 31.7862 10.5145 31.7574 10.6796 31.7574C10.9332 31.7574 11.1486 31.822 11.3256 31.9513C11.5051 32.0805 11.614 32.23 11.6523 32.3999C11.6929 32.5674 11.7133 32.8749 11.7133 33.3223V36.6065H10.2632V33.2541C10.2632 32.9766 10.2489 32.7983 10.2202 32.7193C10.1938 32.6404 10.1328 32.6009 10.0371 32.6009C9.94859 32.6009 9.88877 32.6416 9.85766 32.7229C9.82655 32.8043 9.811 32.9658 9.811 33.2075V36.6065H8.36096V30.7955H9.811Z" fill="white"/>
<path d="M13.7448 31.2083V31.9584H14.136V32.7122H13.7448V35.2605C13.7448 35.574 13.7603 35.7486 13.7914 35.7845C13.8249 35.8204 13.9601 35.8384 14.197 35.8384V36.6065H13.612C13.2818 36.6065 13.0461 36.5933 12.9049 36.567C12.7637 36.5383 12.6393 36.4748 12.5316 36.3767C12.4239 36.2762 12.3569 36.1626 12.3306 36.0358C12.3043 35.9066 12.2911 35.6051 12.2911 35.1313V32.7122H11.9789V31.9584H12.2911V31.2083H13.7448Z" fill="white"/>
<path d="M15.9844 31.2083V31.9584H16.3757V32.7122H15.9844V35.2605C15.9844 35.574 16 35.7486 16.0311 35.7845C16.0646 35.8204 16.1998 35.8384 16.4367 35.8384V36.6065H15.8516C15.5214 36.6065 15.2857 36.5933 15.1446 36.567C15.0034 36.5383 14.879 36.4748 14.7713 36.3767C14.6636 36.2762 14.5966 36.1626 14.5703 36.0358C14.544 35.9066 14.5308 35.6051 14.5308 35.1313V32.7122H14.2185V31.9584H14.5308V31.2083H15.9844Z" fill="white"/>
<path d="M18.1703 31.8436L18.1451 32.2635C18.2743 32.0936 18.4167 31.9668 18.5722 31.8831C18.7278 31.7993 18.8977 31.7574 19.0819 31.7574C19.3068 31.7574 19.5007 31.8185 19.6634 31.9405C19.8285 32.0601 19.9314 32.1989 19.972 32.3568C20.0127 32.5148 20.0331 32.7828 20.0331 33.1608V35.1672C20.0331 35.6003 20.0067 35.9089 19.9541 36.0932C19.9038 36.275 19.7986 36.421 19.6382 36.5311C19.4803 36.6388 19.2889 36.6926 19.064 36.6926C18.8845 36.6926 18.7182 36.6507 18.5651 36.567C18.4119 36.4832 18.2719 36.3588 18.1451 36.1937V37.2848H16.6951V31.8436H18.1703ZM18.583 33.229C18.583 32.9347 18.5722 32.7564 18.5507 32.6942C18.5292 32.632 18.4694 32.6009 18.3713 32.6009C18.2755 32.6009 18.2133 32.6368 18.1846 32.7086C18.1583 32.7804 18.1451 32.9538 18.1451 33.229V35.2031C18.1451 35.4902 18.1595 35.6697 18.1882 35.7415C18.2169 35.8132 18.2791 35.8491 18.3748 35.8491C18.4682 35.8491 18.5256 35.8168 18.5471 35.7522C18.5711 35.6852 18.583 35.5249 18.583 35.2713V33.229Z" fill="white"/>
<path d="M23.4751 33.3654H22.1902V33.107C22.1902 32.8868 22.177 32.7481 22.1507 32.6906C22.1268 32.6308 22.0645 32.6009 21.964 32.6009C21.8827 32.6009 21.8217 32.6284 21.781 32.6835C21.7403 32.7361 21.72 32.8163 21.72 32.9239C21.72 33.0699 21.7295 33.1776 21.7487 33.247C21.7702 33.314 21.8312 33.3881 21.9317 33.4695C22.0346 33.5508 22.244 33.6693 22.5599 33.8248C22.981 34.0306 23.2574 34.2244 23.389 34.4063C23.5206 34.5881 23.5864 34.8525 23.5864 35.1995C23.5864 35.5871 23.5361 35.8802 23.4356 36.0788C23.3351 36.275 23.1664 36.427 22.9295 36.5347C22.695 36.64 22.4115 36.6926 22.0789 36.6926C21.7104 36.6926 21.3946 36.6352 21.1313 36.5203C20.8705 36.4055 20.6911 36.2499 20.593 36.0537C20.4949 35.8575 20.4458 35.5608 20.4458 35.1636V34.9339H21.7307V35.2354C21.7307 35.4914 21.7463 35.6577 21.7774 35.7343C21.8109 35.8108 21.8755 35.8491 21.9712 35.8491C22.0741 35.8491 22.1459 35.824 22.1866 35.7738C22.2273 35.7211 22.2476 35.6122 22.2476 35.4471C22.2476 35.2198 22.2213 35.0775 22.1686 35.02C22.1136 34.9626 21.8324 34.7927 21.3252 34.5104C20.8992 34.2711 20.6396 34.0545 20.5463 33.8607C20.453 33.6645 20.4063 33.4324 20.4063 33.1644C20.4063 32.7839 20.4566 32.504 20.5571 32.3245C20.6576 32.1427 20.8275 32.0027 21.0667 31.9046C21.3084 31.8065 21.5884 31.7574 21.9066 31.7574C22.2225 31.7574 22.4905 31.7981 22.7106 31.8795C22.9331 31.9584 23.103 32.0637 23.2203 32.1953C23.3399 32.3269 23.4117 32.449 23.4356 32.5614C23.4619 32.6739 23.4751 32.8498 23.4751 33.089V33.3654Z" fill="white"/>
<path d="M25.0687 32.8234V34.0043H23.974V32.8234H25.0687ZM25.0687 35.422V36.6065H23.974V35.422H25.0687Z" fill="white"/>
<path d="M28.0657 30.6843L26.3429 36.7177H25.2446L26.9782 30.6843H28.0657Z" fill="white"/>
<path d="M30.9729 30.6843L29.2501 36.7177H28.1518L29.8854 30.6843H30.9729Z" fill="white"/>
<path d="M34.2355 33.3654H32.9506V33.107C32.9506 32.8868 32.9374 32.7481 32.9111 32.6906C32.8872 32.6308 32.825 32.6009 32.7245 32.6009C32.6431 32.6009 32.5821 32.6284 32.5414 32.6835C32.5007 32.7361 32.4804 32.8163 32.4804 32.9239C32.4804 33.0699 32.49 33.1776 32.5091 33.247C32.5307 33.314 32.5917 33.3881 32.6922 33.4695C32.7951 33.5508 33.0044 33.6693 33.3203 33.8248C33.7414 34.0306 34.0178 34.2244 34.1494 34.4063C34.281 34.5881 34.3468 34.8525 34.3468 35.1995C34.3468 35.5871 34.2965 35.8802 34.1961 36.0788C34.0956 36.275 33.9269 36.427 33.69 36.5347C33.4555 36.64 33.1719 36.6926 32.8393 36.6926C32.4708 36.6926 32.155 36.6352 31.8918 36.5203C31.631 36.4055 31.4515 36.2499 31.3534 36.0537C31.2553 35.8575 31.2062 35.5608 31.2062 35.1636V34.9339H32.4912V35.2354C32.4912 35.4914 32.5067 35.6577 32.5378 35.7343C32.5713 35.8108 32.6359 35.8491 32.7317 35.8491C32.8345 35.8491 32.9063 35.824 32.947 35.7738C32.9877 35.7211 33.008 35.6122 33.008 35.4471C33.008 35.2198 32.9817 35.0775 32.9291 35.02C32.874 34.9626 32.5929 34.7927 32.0856 34.5104C31.6597 34.2711 31.4001 34.0545 31.3067 33.8607C31.2134 33.6645 31.1668 33.4324 31.1668 33.1644C31.1668 32.7839 31.217 32.504 31.3175 32.3245C31.418 32.1427 31.5879 32.0027 31.8272 31.9046C32.0688 31.8065 32.3488 31.7574 32.667 31.7574C32.9829 31.7574 33.2509 31.7981 33.471 31.8795C33.6936 31.9584 33.8635 32.0637 33.9807 32.1953C34.1003 32.3269 34.1721 32.449 34.1961 32.5614C34.2224 32.6739 34.2355 32.8498 34.2355 33.089V33.3654Z" fill="white"/>
<path d="M38.015 33.5161V34.6826C38.015 35.1109 37.9934 35.4256 37.9504 35.6266C37.9073 35.8252 37.8152 36.0118 37.674 36.1865C37.5328 36.3588 37.351 36.4868 37.1284 36.5706C36.9083 36.6519 36.6547 36.6926 36.3675 36.6926C36.0469 36.6926 35.7753 36.6579 35.5528 36.5885C35.3302 36.5167 35.1568 36.4102 35.0323 36.2691C34.9103 36.1255 34.823 35.9532 34.7703 35.7522C34.7177 35.5488 34.6914 35.2449 34.6914 34.8406V33.6202C34.6914 33.1776 34.7392 32.8318 34.8349 32.583C34.9306 32.3341 35.1029 32.1343 35.3518 31.9836C35.6006 31.8328 35.9189 31.7574 36.3065 31.7574C36.6319 31.7574 36.9107 31.8065 37.1428 31.9046C37.3773 32.0003 37.5579 32.1259 37.6848 32.2815C37.8116 32.437 37.8977 32.5973 37.9432 32.7624C37.991 32.9275 38.015 33.1788 38.015 33.5161ZM36.5649 33.1572C36.5649 32.9132 36.5518 32.76 36.5254 32.6978C36.4991 32.6332 36.4429 32.6009 36.3568 32.6009C36.2706 32.6009 36.2132 32.6332 36.1845 32.6978C36.1558 32.76 36.1414 32.9132 36.1414 33.1572V35.3072C36.1414 35.5321 36.1558 35.6792 36.1845 35.7486C36.2132 35.8156 36.2694 35.8491 36.3532 35.8491C36.4393 35.8491 36.4955 35.818 36.5219 35.7558C36.5506 35.6936 36.5649 35.5596 36.5649 35.3538V33.1572Z" fill="white"/>
<path d="M41.8159 31.8436V36.6065H40.3408L40.3659 36.2116C40.2654 36.372 40.141 36.4928 39.9926 36.5741C39.8467 36.6531 39.678 36.6926 39.4865 36.6926C39.2688 36.6926 39.0881 36.6543 38.9446 36.5777C38.801 36.5012 38.6945 36.3995 38.6251 36.2727C38.5581 36.1458 38.5163 36.0142 38.4995 35.8778C38.4828 35.7391 38.4744 35.4651 38.4744 35.0559V31.8436H39.9244V35.0846C39.9244 35.4555 39.9352 35.6757 39.9567 35.745C39.9807 35.8144 40.0429 35.8491 40.1434 35.8491C40.251 35.8491 40.3144 35.8132 40.3336 35.7415C40.3551 35.6697 40.3659 35.4388 40.3659 35.0487V31.8436H41.8159Z" fill="white"/>
<path d="M43.8115 31.8436L43.7864 32.2815C43.8917 32.1068 44.0197 31.9764 44.1704 31.8902C44.3236 31.8017 44.4995 31.7574 44.6981 31.7574C44.9469 31.7574 45.1503 31.8161 45.3082 31.9333C45.4661 32.0506 45.5678 32.1989 45.6133 32.3784C45.6588 32.5554 45.6815 32.8521 45.6815 33.2685V36.6065H44.2315V33.308C44.2315 32.9802 44.2207 32.7804 44.1992 32.7086C44.1776 32.6368 44.1178 32.6009 44.0197 32.6009C43.9168 32.6009 43.8522 32.6428 43.8259 32.7265C43.7996 32.8079 43.7864 33.028 43.7864 33.3869V36.6065H42.3364V31.8436H43.8115Z" fill="white"/>
<path d="M49.4825 30.7955V36.6065H48.0324V36.2619C47.8936 36.4055 47.7477 36.5131 47.5945 36.5849C47.4414 36.6567 47.2811 36.6926 47.1136 36.6926C46.8887 36.6926 46.6937 36.634 46.5286 36.5167C46.3634 36.3971 46.257 36.2595 46.2091 36.104C46.1637 35.9484 46.1409 35.6948 46.1409 35.3431V33.1142C46.1409 32.7481 46.1637 32.4884 46.2091 32.3353C46.257 32.1822 46.3646 32.0482 46.5321 31.9333C46.6996 31.8161 46.8994 31.7574 47.1315 31.7574C47.311 31.7574 47.4749 31.7897 47.6233 31.8543C47.774 31.919 47.9104 32.0159 48.0324 32.1451V30.7955H49.4825ZM48.0324 33.0424C48.0324 32.8677 48.0169 32.7505 47.9858 32.6906C47.9571 32.6308 47.8984 32.6009 47.8099 32.6009C47.7238 32.6009 47.6651 32.6284 47.634 32.6835C47.6053 32.7361 47.591 32.8557 47.591 33.0424V35.3754C47.591 35.5692 47.6053 35.6972 47.634 35.7594C47.6627 35.8192 47.7178 35.8491 47.7991 35.8491C47.8925 35.8491 47.9547 35.8156 47.9858 35.7486C48.0169 35.6792 48.0324 35.5117 48.0324 35.2461V33.0424Z" fill="white"/>
<path d="M52.964 33.3654H51.6791V33.107C51.6791 32.8868 51.6659 32.7481 51.6396 32.6906C51.6157 32.6308 51.5534 32.6009 51.4529 32.6009C51.3716 32.6009 51.3106 32.6284 51.2699 32.6835C51.2292 32.7361 51.2089 32.8163 51.2089 32.9239C51.2089 33.0699 51.2184 33.1776 51.2376 33.247C51.2591 33.314 51.3201 33.3881 51.4206 33.4695C51.5235 33.5508 51.7329 33.6693 52.0487 33.8248C52.4699 34.0306 52.7463 34.2244 52.8779 34.4063C53.0095 34.5881 53.0753 34.8525 53.0753 35.1995C53.0753 35.5871 53.025 35.8802 52.9245 36.0788C52.824 36.275 52.6553 36.427 52.4184 36.5347C52.1839 36.64 51.9004 36.6926 51.5678 36.6926C51.1993 36.6926 50.8835 36.6352 50.6202 36.5203C50.3594 36.4055 50.18 36.2499 50.0819 36.0537C49.9838 35.8575 49.9347 35.5608 49.9347 35.1636V34.9339H51.2196V35.2354C51.2196 35.4914 51.2352 35.6577 51.2663 35.7343C51.2998 35.8108 51.3644 35.8491 51.4601 35.8491C51.563 35.8491 51.6348 35.824 51.6755 35.7738C51.7161 35.7211 51.7365 35.6122 51.7365 35.4471C51.7365 35.2198 51.7102 35.0775 51.6575 35.02C51.6025 34.9626 51.3213 34.7927 50.8141 34.5104C50.3881 34.2711 50.1285 34.0545 50.0352 33.8607C49.9419 33.6645 49.8952 33.4324 49.8952 33.1644C49.8952 32.7839 49.9455 32.504 50.046 32.3245C50.1465 32.1427 50.3164 32.0027 50.5556 31.9046C50.7973 31.8065 51.0773 31.7574 51.3955 31.7574C51.7114 31.7574 51.9794 31.7981 52.1995 31.8795C52.422 31.9584 52.5919 32.0637 52.7092 32.1953C52.8288 32.3269 52.9006 32.449 52.9245 32.5614C52.9508 32.6739 52.964 32.8498 52.964 33.089V33.3654Z" fill="white"/>
<path d="M54.4284 35.422V36.6065H53.3337V35.422H54.4284Z" fill="white"/>
<path d="M58.1396 31.8436V36.6065H56.6645L56.6896 36.2116C56.5891 36.372 56.4647 36.4928 56.3163 36.5741C56.1703 36.6531 56.0017 36.6926 55.8102 36.6926C55.5925 36.6926 55.4118 36.6543 55.2683 36.5777C55.1247 36.5012 55.0182 36.3995 54.9488 36.2727C54.8818 36.1458 54.84 36.0142 54.8232 35.8778C54.8065 35.7391 54.7981 35.4651 54.7981 35.0559V31.8436H56.2481V35.0846C56.2481 35.4555 56.2589 35.6757 56.2804 35.745C56.3044 35.8144 56.3666 35.8491 56.4671 35.8491C56.5747 35.8491 56.6381 35.8132 56.6573 35.7415C56.6788 35.6697 56.6896 35.4388 56.6896 35.0487V31.8436H58.1396Z" fill="white"/>
<path d="M61.9585 30.7955V36.6065H60.5085V36.2619C60.3697 36.4055 60.2238 36.5131 60.0706 36.5849C59.9175 36.6567 59.7572 36.6926 59.5897 36.6926C59.3647 36.6926 59.1697 36.634 59.0046 36.5167C58.8395 36.3971 58.733 36.2595 58.6852 36.104C58.6397 35.9484 58.617 35.6948 58.617 35.3431V33.1142C58.617 32.7481 58.6397 32.4884 58.6852 32.3353C58.733 32.1822 58.8407 32.0482 59.0082 31.9333C59.1757 31.8161 59.3755 31.7574 59.6076 31.7574C59.7871 31.7574 59.951 31.7897 60.0993 31.8543C60.2501 31.919 60.3865 32.0159 60.5085 32.1451V30.7955H61.9585ZM60.5085 33.0424C60.5085 32.8677 60.4929 32.7505 60.4618 32.6906C60.4331 32.6308 60.3745 32.6009 60.286 32.6009C60.1998 32.6009 60.1412 32.6284 60.1101 32.6835C60.0814 32.7361 60.067 32.8557 60.067 33.0424V35.3754C60.067 35.5692 60.0814 35.6972 60.1101 35.7594C60.1388 35.8192 60.1938 35.8491 60.2752 35.8491C60.3685 35.8491 60.4307 35.8156 60.4618 35.7486C60.4929 35.6792 60.5085 35.5117 60.5085 35.2461V33.0424Z" fill="white"/>
<path d="M65.7595 33.5161V34.6826C65.7595 35.1109 65.738 35.4256 65.6949 35.6266C65.6518 35.8252 65.5597 36.0118 65.4185 36.1865C65.2774 36.3588 65.0955 36.4868 64.873 36.5706C64.6528 36.6519 64.3992 36.6926 64.1121 36.6926C63.7914 36.6926 63.5198 36.6579 63.2973 36.5885C63.0748 36.5167 62.9013 36.4102 62.7769 36.2691C62.6548 36.1255 62.5675 35.9532 62.5149 35.7522C62.4622 35.5488 62.4359 35.2449 62.4359 34.8406V33.6202C62.4359 33.1776 62.4838 32.8318 62.5795 32.583C62.6752 32.3341 62.8475 32.1343 63.0963 31.9836C63.3452 31.8328 63.6634 31.7574 64.051 31.7574C64.3765 31.7574 64.6552 31.8065 64.8873 31.9046C65.1218 32.0003 65.3025 32.1259 65.4293 32.2815C65.5561 32.437 65.6423 32.5973 65.6877 32.7624C65.7356 32.9275 65.7595 33.1788 65.7595 33.5161ZM64.3095 33.1572C64.3095 32.9132 64.2963 32.76 64.27 32.6978C64.2437 32.6332 64.1874 32.6009 64.1013 32.6009C64.0152 32.6009 63.9577 32.6332 63.929 32.6978C63.9003 32.76 63.8859 32.9132 63.8859 33.1572V35.3072C63.8859 35.5321 63.9003 35.6792 63.929 35.7486C63.9577 35.8156 64.014 35.8491 64.0977 35.8491C64.1838 35.8491 64.2401 35.818 64.2664 35.7558C64.2951 35.6936 64.3095 35.5596 64.3095 35.3538V33.1572Z" fill="white"/>
<path d="M67.7156 31.8436L67.6905 32.2815C67.7958 32.1068 67.9238 31.9764 68.0745 31.8902C68.2277 31.8017 68.4036 31.7574 68.6022 31.7574C68.851 31.7574 69.0544 31.8161 69.2123 31.9333C69.3702 32.0506 69.4719 32.1989 69.5174 32.3784C69.5629 32.5554 69.5856 32.8521 69.5856 33.2685V36.6065H68.1356V33.308C68.1356 32.9802 68.1248 32.7804 68.1033 32.7086C68.0817 32.6368 68.0219 32.6009 67.9238 32.6009C67.8209 32.6009 67.7563 32.6428 67.73 32.7265C67.7037 32.8079 67.6905 33.028 67.6905 33.3869V36.6065H66.2405V31.8436H67.7156Z" fill="white"/>
<path d="M73.2107 31.8436L72.6221 33.7423L73.3866 36.6065H71.9904L71.5381 34.5319V36.6065H70.0881V30.7955H71.5381V33.2362L71.9904 31.8436H73.2107Z" fill="white"/>
<path d="M76.886 33.5161V34.6826C76.886 35.1109 76.8645 35.4256 76.8214 35.6266C76.7784 35.8252 76.6862 36.0118 76.5451 36.1865C76.4039 36.3588 76.222 36.4868 75.9995 36.5706C75.7794 36.6519 75.5257 36.6926 75.2386 36.6926C74.918 36.6926 74.6464 36.6579 74.4238 36.5885C74.2013 36.5167 74.0278 36.4102 73.9034 36.2691C73.7814 36.1255 73.694 35.9532 73.6414 35.7522C73.5888 35.5488 73.5624 35.2449 73.5624 34.8406V33.6202C73.5624 33.1776 73.6103 32.8318 73.706 32.583C73.8017 32.3341 73.974 32.1343 74.2228 31.9836C74.4717 31.8328 74.7899 31.7574 75.1776 31.7574C75.503 31.7574 75.7818 31.8065 76.0139 31.9046C76.2484 32.0003 76.429 32.1259 76.5558 32.2815C76.6827 32.437 76.7688 32.5973 76.8143 32.7624C76.8621 32.9275 76.886 33.1788 76.886 33.5161ZM75.436 33.1572C75.436 32.9132 75.4228 32.76 75.3965 32.6978C75.3702 32.6332 75.314 32.6009 75.2278 32.6009C75.1417 32.6009 75.0843 32.6332 75.0555 32.6978C75.0268 32.76 75.0125 32.9132 75.0125 33.1572V35.3072C75.0125 35.5321 75.0268 35.6792 75.0555 35.7486C75.0843 35.8156 75.1405 35.8491 75.2242 35.8491C75.3104 35.8491 75.3666 35.818 75.3929 35.7558C75.4216 35.6936 75.436 35.5596 75.436 35.3538V33.1572Z" fill="white"/>
<path d="M78.3325 35.422V36.6065H77.2378V35.422H78.3325Z" fill="white"/>
<path d="M80.1989 31.8436L80.1738 32.2815C80.279 32.1068 80.407 31.9764 80.5578 31.8902C80.7109 31.8017 80.8868 31.7574 81.0854 31.7574C81.3343 31.7574 81.5376 31.8161 81.6956 31.9333C81.8535 32.0506 81.9552 32.1989 82.0007 32.3784C82.0461 32.5554 82.0688 32.8521 82.0688 33.2685V36.6065H80.6188V33.308C80.6188 32.9802 80.608 32.7804 80.5865 32.7086C80.565 32.6368 80.5052 32.6009 80.4071 32.6009C80.3042 32.6009 80.2396 32.6428 80.2132 32.7265C80.1869 32.8079 80.1738 33.028 80.1738 33.3869V36.6065H78.7237V31.8436H80.1989Z" fill="white"/>
<path d="M85.8555 34.3094H83.9783V35.3395C83.9783 35.5548 83.9939 35.6936 84.025 35.7558C84.0561 35.818 84.1159 35.8491 84.2044 35.8491C84.3145 35.8491 84.3875 35.8085 84.4234 35.7271C84.4617 35.6433 84.4808 35.483 84.4808 35.2461V34.618H85.8555V34.9698C85.8555 35.2641 85.8363 35.4902 85.798 35.6481C85.7621 35.8061 85.676 35.9748 85.5396 36.1542C85.4032 36.3337 85.2297 36.4689 85.0192 36.5598C84.811 36.6483 84.549 36.6926 84.2331 36.6926C83.9269 36.6926 83.6565 36.6483 83.422 36.5598C83.1875 36.4713 83.0044 36.3504 82.8728 36.1973C82.7436 36.0417 82.6539 35.8719 82.6036 35.6876C82.5534 35.501 82.5283 35.2306 82.5283 34.8765V33.4874C82.5283 33.0711 82.5845 32.7433 82.697 32.504C82.8094 32.2623 82.9937 32.0781 83.2497 31.9513C83.5057 31.822 83.8 31.7574 84.1326 31.7574C84.5394 31.7574 84.8744 31.8352 85.1376 31.9907C85.4032 32.1439 85.5887 32.3485 85.6939 32.6045C85.8016 32.8581 85.8555 33.2159 85.8555 33.6777V34.3094ZM84.4018 33.5341V33.1859C84.4018 32.9395 84.3887 32.7804 84.3624 32.7086C84.336 32.6368 84.2822 32.6009 84.2008 32.6009C84.1003 32.6009 84.0381 32.632 84.0142 32.6942C83.9903 32.754 83.9783 32.9179 83.9783 33.1859V33.5341H84.4018Z" fill="white"/>
<path d="M87.8618 31.2083V31.9584H88.253V32.7122H87.8618V35.2605C87.8618 35.574 87.8774 35.7486 87.9085 35.7845C87.942 35.8204 88.0772 35.8384 88.3141 35.8384V36.6065H87.729C87.3988 36.6065 87.1631 36.5933 87.0219 36.567C86.8808 36.5383 86.7564 36.4748 86.6487 36.3767C86.541 36.2762 86.474 36.1626 86.4477 36.0358C86.4214 35.9066 86.4082 35.6051 86.4082 35.1313V32.7122H86.0959V31.9584H86.4082V31.2083H87.8618Z" fill="white"/>
<path d="M14.5694 16.8463C15.0294 17.0324 15.3834 17.3115 15.6315 17.6836C15.8796 18.0505 16.0036 18.9292 16.0036 20.3195C16.0036 21.3325 15.9054 22.0794 15.709 22.56C15.5126 23.0407 15.1301 23.4361 14.5616 23.7462C13.9931 24.0511 13.2307 24.2036 12.2746 24.2036C11.3442 24.2036 10.6077 24.0563 10.0651 23.7617C9.52237 23.4671 9.13215 23.0769 8.8944 22.591C8.66182 22.1052 8.54553 21.2963 8.54553 20.1644C8.54553 19.4047 8.60239 18.7457 8.71609 18.1875C8.83497 17.6293 9.20193 17.1822 9.81697 16.8463C9.42934 16.6602 9.13732 16.3656 8.94092 15.9625C8.74969 15.5542 8.65407 15.0373 8.65407 14.4119C8.65407 13.3317 8.95384 12.5229 9.55338 11.9854C10.1529 11.4427 11.0496 11.1713 12.2436 11.1713C13.6235 11.1713 14.5771 11.4582 15.1043 12.0319C15.6315 12.6056 15.8951 13.4248 15.8951 14.4895C15.8951 15.1665 15.8072 15.655 15.6315 15.9547C15.4609 16.2545 15.1069 16.5517 14.5694 16.8463ZM12.8095 14.1484C12.8095 13.7245 12.7707 13.4454 12.6932 13.3111C12.6209 13.1715 12.4787 13.1017 12.2668 13.1017C12.0601 13.1017 11.9205 13.1767 11.8482 13.3266C11.7758 13.4713 11.7396 13.7452 11.7396 14.1484V15.1019C11.7396 15.4792 11.781 15.7402 11.8637 15.885C11.9464 16.0297 12.0859 16.102 12.2823 16.102C12.4891 16.102 12.6286 16.0323 12.701 15.8927C12.7733 15.748 12.8095 15.4534 12.8095 15.0089V14.1484ZM12.8715 19.3659C12.8715 18.8852 12.8224 18.5674 12.7242 18.4123C12.626 18.2521 12.471 18.172 12.2591 18.172C12.0523 18.172 11.9024 18.2495 11.8094 18.4046C11.7215 18.5545 11.6776 18.8749 11.6776 19.3659V20.994C11.6776 21.5367 11.7267 21.8855 11.8249 22.0406C11.9283 22.1956 12.0885 22.2732 12.3056 22.2732C12.5278 22.2732 12.6777 22.1956 12.7552 22.0406C12.8328 21.8804 12.8715 21.5237 12.8715 20.9707V19.3659Z" fill="#EB5757"/>
<path d="M17.182 11.4117H20.4381C21.4667 11.4117 22.2445 11.4918 22.7717 11.652C23.3041 11.8122 23.733 12.1378 24.0586 12.6288C24.3843 13.1147 24.5471 13.9003 24.5471 14.9856C24.5471 15.7196 24.4308 16.2312 24.1982 16.5207C23.9708 16.8101 23.5185 17.0324 22.8415 17.1874C23.5961 17.358 24.1077 17.6422 24.3765 18.0402C24.6453 18.433 24.7796 19.0377 24.7796 19.8543V21.0172C24.7796 21.8649 24.6814 22.4928 24.485 22.9011C24.2938 23.3094 23.9863 23.5885 23.5625 23.7384C23.1387 23.8883 22.2704 23.9633 20.9576 23.9633H17.182V11.4117ZM20.4459 13.5592V16.3501C20.5854 16.345 20.694 16.3424 20.7715 16.3424C21.092 16.3424 21.2961 16.2648 21.384 16.1098C21.4718 15.9496 21.5158 15.4973 21.5158 14.7531C21.5158 14.3603 21.4796 14.0863 21.4072 13.9313C21.3349 13.7711 21.2393 13.6703 21.1204 13.6289C21.0067 13.5876 20.7818 13.5643 20.4459 13.5592ZM20.4459 18.3038V21.8158C20.9059 21.8003 21.1979 21.7279 21.3219 21.5987C21.4512 21.4695 21.5158 21.1516 21.5158 20.6451V19.4744C21.5158 18.9369 21.4589 18.6113 21.3452 18.4976C21.2315 18.3839 20.9317 18.3193 20.4459 18.3038Z" fill="#EB5757"/>
<path d="M29.2219 11.4117V23.9633H25.9581V11.4117H29.2219Z" fill="#EB5757"/>
<path d="M37.1064 11.4117V13.9235H35.1682V23.9633H31.9044V13.9235H29.9739V11.4117H37.1064Z" fill="#EB5757"/>
<path d="M44.7661 15.2105H41.7348V14.2802C41.7348 13.846 41.696 13.5695 41.6185 13.4506C41.5409 13.3317 41.4117 13.2723 41.2308 13.2723C41.0344 13.2723 40.8845 13.3524 40.7812 13.5126C40.683 13.6729 40.6339 13.9158 40.6339 14.2414C40.6339 14.66 40.6907 14.9753 40.8044 15.1872C40.913 15.3991 41.2205 15.655 41.727 15.9547C43.1793 16.8179 44.0942 17.5259 44.4715 18.079C44.8487 18.632 45.0374 19.5236 45.0374 20.7536C45.0374 21.6478 44.9314 22.3068 44.7195 22.7306C44.5128 23.1544 44.1097 23.511 43.5101 23.8004C42.9106 24.0847 42.2128 24.2268 41.4169 24.2268C40.5434 24.2268 39.7966 24.0615 39.1764 23.7307C38.5613 23.3999 38.1582 22.9787 37.967 22.467C37.7757 21.9553 37.6801 21.2291 37.6801 20.2885V19.4667H40.7114V20.994C40.7114 21.4643 40.7528 21.7667 40.8354 21.901C40.9233 22.0354 41.0758 22.1026 41.2929 22.1026C41.5099 22.1026 41.6701 22.0173 41.7735 21.8468C41.8821 21.6762 41.9363 21.423 41.9363 21.087C41.9363 20.3479 41.8355 19.8647 41.634 19.6373C41.4272 19.4098 40.9181 19.03 40.1067 18.4976C39.2952 17.9601 38.7577 17.5699 38.4941 17.327C38.2305 17.084 38.0109 16.7481 37.8352 16.3191C37.6646 15.8901 37.5793 15.3423 37.5793 14.6755C37.5793 13.7142 37.7008 13.0113 37.9437 12.5668C38.1918 12.1223 38.5898 11.776 39.1376 11.528C39.6855 11.2747 40.347 11.1481 41.1223 11.1481C41.9699 11.1481 42.6909 11.285 43.2853 11.559C43.8848 11.8329 44.2802 12.1792 44.4715 12.5978C44.6679 13.0113 44.7661 13.7168 44.7661 14.7143V15.2105Z" fill="#EB5757"/>
<path d="M53.5266 18.7612C53.5266 20.0223 53.4956 20.9164 53.4335 21.4436C53.3767 21.9656 53.1906 22.4437 52.8754 22.8779C52.5652 23.312 52.144 23.6454 51.6117 23.878C51.0793 24.1106 50.4591 24.2268 49.751 24.2268C49.0791 24.2268 48.4744 24.1183 47.9369 23.9012C47.4046 23.679 46.9756 23.3482 46.65 22.9089C46.3243 22.4696 46.1305 21.9915 46.0685 21.4746C46.0065 20.9578 45.9755 20.0533 45.9755 18.7612V16.6137C45.9755 15.3526 46.0039 14.461 46.0607 13.939C46.1228 13.4119 46.3088 12.9312 46.6189 12.497C46.9342 12.0629 47.358 11.7295 47.8904 11.4969C48.4227 11.2644 49.0429 11.1481 49.751 11.1481C50.4229 11.1481 51.025 11.2592 51.5574 11.4814C52.0949 11.6985 52.5265 12.0267 52.8521 12.466C53.1777 12.9053 53.3715 13.3834 53.4335 13.9003C53.4956 14.4171 53.5266 15.3216 53.5266 16.6137V18.7612ZM50.2627 14.6368C50.2627 14.0527 50.2291 13.6806 50.1619 13.5204C50.0999 13.355 49.9681 13.2723 49.7665 13.2723C49.596 13.2723 49.4642 13.3395 49.3711 13.4739C49.2833 13.6031 49.2393 13.9907 49.2393 14.6368V20.4978C49.2393 21.2266 49.2678 21.6762 49.3246 21.8468C49.3867 22.0173 49.5262 22.1026 49.7433 22.1026C49.9655 22.1026 50.1076 22.0044 50.1697 21.808C50.2317 21.6116 50.2627 21.1439 50.2627 20.4048V14.6368Z" fill="#EB5757"/>
<path d="M62.1708 11.4117V19.8001C62.1708 20.7511 62.1398 21.4204 62.0778 21.808C62.0158 22.1905 61.8323 22.5859 61.5273 22.9942C61.2224 23.3973 60.8193 23.7048 60.3179 23.9167C59.8218 24.1235 59.2351 24.2268 58.5581 24.2268C57.8086 24.2268 57.1471 24.1028 56.5734 23.8547C55.9997 23.6066 55.5707 23.2836 55.2864 22.8856C55.0022 22.4877 54.8342 22.069 54.7825 21.6297C54.7308 21.1852 54.705 20.2549 54.705 18.8387V11.4117H57.9689V20.8234C57.9689 21.3713 57.9973 21.7227 58.0541 21.8778C58.1162 22.0277 58.2376 22.1026 58.4185 22.1026C58.6253 22.1026 58.7571 22.0199 58.8139 21.8545C58.8759 21.684 58.9069 21.286 58.9069 20.6606V11.4117H62.1708Z" fill="#EB5757"/>
<path d="M70.722 11.4117V23.9633H67.8613L66.1634 18.2573V23.9633H63.4345V11.4117H66.1634L67.9931 17.0634V11.4117H70.722Z" fill="#EB5757"/>
<path d="M72.04 11.4117H74.4821C76.0585 11.4117 77.1232 11.484 77.6762 11.6287C78.2344 11.7735 78.6582 12.0112 78.9476 12.342C79.237 12.6728 79.4179 13.0423 79.4903 13.4506C79.5627 13.8538 79.5988 14.6497 79.5988 15.8384V20.2342C79.5988 21.3609 79.5446 22.1155 79.436 22.498C79.3327 22.8753 79.1492 23.1725 78.8856 23.3896C78.622 23.6015 78.2964 23.7513 77.9088 23.8392C77.5211 23.9219 76.9371 23.9633 76.1567 23.9633H72.04V11.4117ZM75.3039 13.5592V21.8158C75.7742 21.8158 76.0636 21.7227 76.1722 21.5367C76.2807 21.3454 76.335 20.8312 76.335 19.9939V15.1174C76.335 14.5489 76.3169 14.1845 76.2807 14.0243C76.2445 13.8641 76.1618 13.7478 76.0326 13.6754C75.9034 13.5979 75.6605 13.5592 75.3039 13.5592Z" fill="#EB5757"/>
<path d="M87.7314 15.2105H84.7001V14.2802C84.7001 13.846 84.6613 13.5695 84.5838 13.4506C84.5063 13.3317 84.3771 13.2723 84.1962 13.2723C83.9998 13.2723 83.8499 13.3524 83.7465 13.5126C83.6483 13.6729 83.5992 13.9158 83.5992 14.2414C83.5992 14.66 83.6561 14.9753 83.7698 15.1872C83.8783 15.3991 84.1858 15.655 84.6924 15.9547C86.1447 16.8179 87.0595 17.5259 87.4368 18.079C87.8141 18.632 88.0027 19.5236 88.0027 20.7536C88.0027 21.6478 87.8968 22.3068 87.6849 22.7306C87.4782 23.1544 87.075 23.511 86.4755 23.8004C85.8759 24.0847 85.1782 24.2268 84.3822 24.2268C83.5088 24.2268 82.7619 24.0615 82.1417 23.7307C81.5267 23.3999 81.1235 22.9787 80.9323 22.467C80.7411 21.9553 80.6455 21.2291 80.6455 20.2885V19.4667H83.6768V20.994C83.6768 21.4643 83.7181 21.7667 83.8008 21.901C83.8887 22.0354 84.0411 22.1026 84.2582 22.1026C84.4753 22.1026 84.6355 22.0173 84.7389 21.8468C84.8474 21.6762 84.9017 21.423 84.9017 21.087C84.9017 20.3479 84.8009 19.8647 84.5993 19.6373C84.3926 19.4098 83.8835 19.03 83.072 18.4976C82.2606 17.9601 81.7231 17.5699 81.4595 17.327C81.1959 17.084 80.9762 16.7481 80.8005 16.3191C80.6299 15.8901 80.5447 15.3423 80.5447 14.6755C80.5447 13.7142 80.6661 13.0113 80.909 12.5668C81.1571 12.1223 81.5551 11.776 82.103 11.528C82.6508 11.2747 83.3124 11.1481 84.0876 11.1481C84.9353 11.1481 85.6563 11.285 86.2506 11.559C86.8502 11.8329 87.2456 12.1792 87.4368 12.5978C87.6332 13.0113 87.7314 13.7168 87.7314 14.7143V15.2105Z" fill="#EB5757"/>
<path d="M7.77948 44.6922C7.77948 43.0683 9.09589 41.7519 10.7198 41.7519H85.6968C87.3207 41.7519 88.6371 43.0683 88.6371 44.6922V75.5651C88.6371 77.1889 87.3207 78.5053 85.6968 78.5053H10.7198C9.09589 78.5053 7.77948 77.1889 7.77948 75.5651V44.6922Z" fill="white"/>
<path fill-rule="evenodd" clip-rule="evenodd" d="M13.954 47.4854C12.3301 47.4854 11.0137 48.8018 11.0137 50.4257V71.7427C11.0137 73.3666 12.3301 74.683 13.954 74.683H37.9173C38.1977 74.683 38.4689 74.6437 38.7258 74.5704C38.9827 74.6437 39.254 74.683 39.5344 74.683H82.9035C84.5273 74.683 85.8438 73.3666 85.8438 71.7427V61.8928C85.8438 60.2689 84.5273 58.9525 82.9035 58.9525H40.8575V50.4257C40.8575 48.8018 39.5411 47.4854 37.9173 47.4854H13.954Z" fill="#EB5757"/>
<path d="M18.6584 54.9831C18.6584 54.5771 18.9875 54.248 19.3935 54.248H26.7442C27.1502 54.248 27.4793 54.5771 27.4793 54.9831V71.1546C27.4793 71.5606 27.1502 71.8897 26.7442 71.8897H19.3935C18.9875 71.8897 18.6584 71.5606 18.6584 71.1546V54.9831Z" fill="white"/>
<path d="M31.1546 58.6584C31.5605 58.6584 31.8896 58.9875 31.8896 59.3935L31.8896 66.7442C31.8896 67.1502 31.5605 67.4793 31.1546 67.4793L14.9831 67.4793C14.5771 67.4793 14.248 67.1502 14.248 66.7442L14.248 59.3935C14.248 58.9875 14.5771 58.6584 14.9831 58.6584L31.1546 58.6584Z" fill="white"/>
<path d="M37.1822 67.4793C37.1822 67.0733 37.5113 66.7442 37.9173 66.7442H43.2098C43.6157 66.7442 43.9448 67.0733 43.9448 67.4793V68.9494C43.9448 69.3554 43.6157 69.6845 43.2098 69.6845H37.9173C37.5113 69.6845 37.1822 69.3554 37.1822 68.9494V67.4793Z" fill="white"/>
<path d="M47.6202 67.4793C47.6202 67.0733 47.9493 66.7442 48.3552 66.7442H53.6477C54.0537 66.7442 54.3828 67.0733 54.3828 67.4793V68.9494C54.3828 69.3554 54.0537 69.6845 53.6477 69.6845H48.3552C47.9493 69.6845 47.6202 69.3554 47.6202 68.9494V67.4793Z" fill="white"/>
<path d="M70.1133 68.1408C70.1133 70.6172 68.1058 72.6248 65.6294 72.6248C63.153 72.6248 61.1454 70.6172 61.1454 68.1408C61.1454 65.6644 63.153 63.6569 65.6294 63.6569C68.1058 63.6569 70.1133 65.6644 70.1133 68.1408Z" fill="white"/>
<path d="M80.8453 68.1408C80.8453 70.6172 78.8378 72.6248 76.3614 72.6248C73.885 72.6248 71.8774 70.6172 71.8774 68.1408C71.8774 65.6644 73.885 63.6569 76.3614 63.6569C78.8378 63.6569 80.8453 65.6644 80.8453 68.1408Z" fill="white"/>
<rect width="96" height="96" rx="20" stroke="#EEEEEE"/>
</g>
</svg>
