<svg width="96" height="96" viewBox="0 0 96 96" fill="none" xmlns="http://www.w3.org/2000/svg">
<mask id="mask0" mask-type="alpha" maskUnits="userSpaceOnUse" x="0" y="0" width="96" height="96">
<rect width="96" height="96" rx="20" fill="#EEEEEE"/>
</mask>
<g mask="url(#mask0)">
<path d="M21.5629 56.8358C25.6702 55.0103 34.3033 53.0961 38.1064 52.3672C47.8361 51.2262 67.6376 49.9712 69.0068 54.0786C70.7182 59.2128 84.7897 62.0651 93.3467 66.9141C101.904 71.7631 101.428 84.4084 100.668 91.0639C99.9071 97.7193 97.4351 104.17 94.963 117.481C92.9854 128.129 58.77 128.081 39.8178 127.193L16.4287 122.154C10.9141 123.676 -0.837491 124.246 -3.72787 114.358C-7.34083 101.998 -1.92139 97.5292 -3.72787 89.3525C-5.53435 81.1758 -3.91802 78.6087 -2.68201 69.196C-1.446 59.7832 16.4287 59.1177 21.5629 56.8358Z" fill="#EAEAEA" stroke="black"/>
<path d="M13.9807 62.5168C14.2445 63.1376 14.7032 63.7425 15.0938 64.3005C15.566 64.975 15.9295 65.7116 16.4216 66.3794C16.8494 66.96 16.8776 67.3382 16.8776 68.0558C16.8776 68.4854 16.7566 69.0345 16.9983 69.397" stroke="black" stroke-linecap="round" stroke-linejoin="round"/>
<path d="M3.96234 66.2587C4.90963 66.2587 5.27278 66.5818 6.08139 67.05C6.96952 67.5641 7.91848 67.9904 8.73692 68.6124C9.35517 69.0823 9.84294 69.2994 10.3329 69.9469C10.6522 70.3688 10.9663 70.8659 11.3857 71.1942C11.6308 71.386 11.9115 71.5349 12.0496 71.8111" stroke="black" stroke-linecap="round" stroke-linejoin="round"/>
<path d="M1.3067 74.7081C3.13148 74.7081 5.18275 75.2909 6.89939 75.9151C7.31692 76.067 7.75672 76.2925 8.20033 76.465C9.11277 76.8198 9.9085 77.4398 10.7217 77.8464" stroke="black" stroke-linecap="round" stroke-linejoin="round"/>
<path d="M87.5468 65.568C86.607 67.0312 86.5334 66.6286 85.5936 68.0919C85.1635 68.7614 84.7335 69.431 84.3035 70.1005C83.9888 70.5906 83.3677 71.1526 83.378 71.8014C83.3842 72.1933 82.9465 72.4027 82.9429 72.8131C82.9394 73.2048 82.653 73.4989 82.6597 73.9223C82.6704 74.5973 82.0564 75.1726 82.1056 75.8618" stroke="black" stroke-linecap="round" stroke-linejoin="round"/>
<path d="M90.7796 68.4203C90.7796 69.8477 90.5894 70.7972 89.8288 72.0332C89.0682 72.889 88.0043 74.2741 87.7371 75.0757" stroke="black" stroke-linecap="round" stroke-linejoin="round"/>
<path d="M96.302 77.3635C95.516 78.1257 94.4556 78.3938 93.5795 79.0266C92.9219 79.5015 91.3843 79.9255 91.1117 80.7433" stroke="black" stroke-linecap="round" stroke-linejoin="round"/>
<path d="M85.5592 84.2438C85.5592 85.6209 85.4385 87.0714 85.4385 88.4081C85.4385 89.0141 85.3021 90.573 85.9213 90.8826" stroke="black" stroke-linecap="round" stroke-linejoin="round"/>
<path d="M44.8546 62.2486C44.3558 61.4428 44.3986 60.7991 44.3986 59.8613L64.3479 60.7062C63.7458 61.8101 63.0545 64.0652 62.5312 65.2125C61.1339 68.2758 58.1013 69.4024 54.9066 69.0952C53.4152 68.9518 52.0293 68.9035 50.7289 68.0692C49.4032 67.2188 48.2456 66.1522 47.1144 65.0516C46.2972 64.2565 45.4585 63.2241 44.8546 62.2486Z" fill="white"/>
<path d="M64.3479 60.7062C63.7458 61.8101 63.0545 64.0652 62.5312 65.2125C61.1339 68.2758 58.1013 69.4024 54.9066 69.0952C53.4152 68.9518 52.0293 68.9035 50.7289 68.0692C49.4032 67.2188 48.2456 66.1522 47.1144 65.0516C46.2972 64.2565 45.4585 63.2241 44.8546 62.2486C44.3558 61.4428 44.3986 60.7991 44.3986 59.8613L64.3479 60.7062ZM64.3479 60.7062C64.5811 60.2786 64.5564 61.2035 64.5564 60.7062" stroke="black" stroke-linecap="round" stroke-linejoin="round"/>
<path d="M11.3897 101.713C14.204 100.648 25.3662 91.4442 30.025 83.0773C29.7398 80.0348 31.1659 76.4004 36.9657 73.4744C47.5193 68.1501 48.8504 76.1366 50.5618 77.4677C52.2732 78.7988 52.5585 79.7496 54.7452 80.225C56.932 80.7003 56.3616 83.7428 55.1256 84.1232C53.8895 84.5035 49.611 81.6511 49.3258 82.2216C49.0406 82.7921 48.1849 84.4084 47.5193 84.5985C47.4242 85.2007 47.101 86.5952 46.5685 87.3558C45.903 88.3066 44.0014 89.1623 43.431 89.4475C43.3676 90.1448 43.0507 91.292 41.1491 92.5851C39.2475 93.8782 38.3602 93.6943 37.5361 93.1556C37.758 97.1805 34.8485 110.179 30.025 117.971C26.3169 123.961 17.4747 129 11.3897 129C5.99704 129 0.360685 126.908 -2.68181 115.119C-5.7243 103.329 7.87184 103.044 11.3897 101.713Z" fill="white" stroke="black"/>
<path d="M31.9267 38.0104C31.8506 35.8046 33.8283 34.0805 34.4938 33.6368L38.4871 22.0373L44.2868 18.8047L73.8561 19.6604L75.1871 23.7487V39.0563C74.1413 41.56 73.5138 49.724 72.525 53.6032C71.2889 58.4522 60.7353 64.4421 54.9355 64.4421C49.1358 64.4421 40.5788 58.9276 38.4871 56.8359C36.3953 54.7441 36.8707 45.5216 36.3003 42.9545C33.7332 44.3806 32.0218 40.7677 31.9267 38.0104Z" fill="white" stroke="black"/>
<path d="M62.5418 52.6524C63.3024 53.0961 65.4892 54.1737 67.7711 52.8426" stroke="black"/>
<path d="M42.9556 51.5115C43.7163 51.9552 45.903 53.0327 48.1849 51.7016" stroke="black"/>
<path d="M52.8438 36.5843C51.7663 35.6652 48.7745 35.025 46.1884 35.2532" stroke="black"/>
<path d="M68.7219 39.4366C67.6443 38.5175 64.8427 37.9724 62.2566 38.2005" stroke="black"/>
<path d="M51.3226 39.5316L46.949 38.9612" stroke="black"/>
<path d="M51.3226 40.8628L46.949 40.2923" stroke="black"/>
<path d="M66.5351 41.4333L62.1616 40.8628" stroke="black"/>
<path d="M66.5351 42.7643L62.1616 42.1938" stroke="black"/>
<path d="M51.3224 57.026C51.7432 56.6511 53.0581 56.0812 54.9516 56.801C57.2238 56.2611 58.4229 56.726 58.7385 57.026" stroke="black"/>
<path d="M51.7027 46.2822C50.6251 47.4548 48.7566 48.6647 50.2765 49.8952C52.2731 51.5115 53.2239 49.9902 54.6501 50.3706C56.0763 50.7509 59.3089 52.5573 60.2597 50.3706C61.0329 48.5922 58.8652 47.2964 58.4532 46.8527C58.0412 46.409 57.3883 45.0272 57.6926 44.1905" stroke="black"/>
<path d="M40.6738 28.1223C40.3696 30.4802 36.3636 34.5559 34.3987 36.299C32.4971 28.5977 38.0116 17.6637 40.2935 12.3394C42.5754 7.01502 59.4992 6.06424 67.6759 7.77564C75.8526 9.48704 74.3314 16.0474 75.7576 18.4244C77.1837 20.8013 78.2296 25.27 77.3739 33.6368C76.6893 40.3303 73.9194 43.3348 72.62 44.0003C72.9369 43.6517 73.7229 42.2699 74.3314 39.5317C75.092 36.1089 72.9052 29.2633 72.62 27.742C72.3918 26.525 73.6658 24.129 74.3314 23.0832C73.9194 23.5269 72.9242 24.5854 72.2397 25.27C71.384 26.1257 62.1614 25.27 59.4992 23.0832C56.8371 20.8964 52.8438 22.7029 48.5653 21.4669C44.2868 20.2308 41.0541 25.1749 40.6738 28.1223Z" fill="black"/>
<path d="M56.076 77.1322C57.2346 76.8572 59.5109 77.0497 59.3474 80.0198" stroke="black"/>
<path d="M58.121 76.3072C59.2796 76.0322 61.5559 76.2247 61.3924 79.1948" stroke="black"/>
<rect x="0.5" y="0.5" width="95" height="95" rx="19.5" stroke="#EEEEEE"/>
<circle cx="66.7048" cy="103.295" r="20.7952" fill="white" stroke="#444444"/>
<mask id="mask1" mask-type="alpha" maskUnits="userSpaceOnUse" x="45" y="82" width="43" height="43">
<circle cx="66.2952" cy="103.295" r="20.7952" fill="white" stroke="#999999"/>
</mask>
<g mask="url(#mask1)">
<path d="M55.118 86.7062C55.118 88.1766 54.5452 89.9514 53.8515 91.2632C53.1777 92.5372 53.0171 93.9575 52.5568 95.3002C52.1659 96.4409 52.3317 97.8262 52.3317 99.0224C52.3317 101.217 52.3317 103.411 52.3317 105.605C52.3317 105.852 52.374 105.959 52.4865 106.166C52.6762 106.514 52.5688 106.953 52.5217 107.329C52.4141 108.187 52.3317 108.995 52.3317 109.861C52.3317 111.886 52.2278 113.977 53.2182 115.834C53.9136 117.138 54.6227 118.623 55.7442 119.645C56.2701 120.125 57.3576 120.858 57.651 121.5C57.8671 121.972 59.9919 123.782 60.0573 123.655" stroke="#444444" stroke-linecap="round" stroke-linejoin="round"/>
<path d="M60.1498 84.3041C60.1498 85.8745 60.1257 85.9898 59.7777 87.5309C59.4176 89.1259 58.8305 90.9106 58.8305 92.5498C58.8305 94.375 58.3216 96.2036 58.3216 98.021C58.3216 99.158 58.2441 100.328 58.3852 101.456C58.5276 102.596 58.2996 104.002 58.9578 105.019C59.5542 105.941 59.3395 106.998 59.3395 108.087C59.3395 108.958 59.4667 109.808 59.4667 110.688C59.4667 112.651 59.5749 114.57 60.2938 116.407C60.5947 117.176 60.8678 118.25 61.3894 118.888C61.8597 119.463 62.2511 119.941 62.6477 120.57C63.2763 121.569 63.9981 123.579 65.1924 123.978" stroke="#444444" stroke-linecap="round" stroke-linejoin="round"/>
<path d="M62.4594 83.5649C62.4594 85.3003 62.7439 84.6576 63.1566 86.308C63.4589 87.5175 64.2076 88.5508 64.436 89.807C64.7295 91.4213 65.4704 92.9738 65.8286 94.5855C65.9885 95.3051 66.3128 95.9676 66.6909 96.5931C66.9088 96.9534 67.1334 97.3098 67.3554 97.6675C67.5817 98.0321 67.4538 98.5046 67.5463 98.9116C68.2103 101.833 68.6548 104.8 69.165 107.748C69.3773 108.974 69.7118 110.199 69.9567 111.423C70.1476 112.378 70.1661 113.353 70.3102 114.307C70.5828 116.114 70.382 117.862 69.9991 119.623C69.7904 120.583 69.3912 121.472 69.3912 122.458C69.3912 123.601 69.3912 124.743 69.3912 125.886" stroke="#444444" stroke-linecap="round" stroke-linejoin="round"/>
<path d="M66.2103 81.7345C66.8886 82.847 67.9776 83.6039 68.8823 84.5337C70.4021 86.0958 71.4467 88.1414 72.1268 90.1817C72.4305 91.0927 73.0403 91.9604 73.583 92.7406C73.8119 93.0696 74.001 93.2692 74.3323 93.4969C74.6507 93.7159 74.4807 94.5357 74.4807 94.8683C74.4807 97.6768 74.8312 100.657 75.3078 103.422C75.4902 104.48 75.3714 105.621 75.3714 106.694C75.3714 107.916 75.438 109.131 75.5057 110.349C75.6153 112.322 76.1041 114.267 76.6155 116.159C76.6879 116.427 76.6438 116.752 76.6438 117.022C76.6438 118.271 76.6438 119.519 76.6438 120.768C76.6438 122.239 76.6438 123.709 76.6438 125.179C76.6438 125.971 76.3893 128.332 76.3893 127.54" stroke="#444444" stroke-linecap="round" stroke-linejoin="round"/>
<path d="M70.6636 81.6073C71.3043 81.8296 71.9755 82.119 72.5439 82.498C73.2394 82.9616 73.7391 83.7437 74.3818 84.2793C75.0832 84.8638 75.8653 85.5865 76.3893 86.3434C77.2307 87.5586 78.2865 88.8184 78.9341 90.1322C79.8832 92.0575 80.132 94.1831 80.9063 96.1619C80.9894 96.3743 81.0973 96.6086 81.2527 96.7769C81.6753 97.2347 81.5692 98.1308 81.6768 98.7067C82.012 100.501 82.2447 102.342 82.6876 104.114C83.2876 106.514 84.0236 109.012 84.0236 111.508C84.0236 113.502 83.7692 115.47 83.7692 117.446C83.7692 119.667 84.0756 122.04 83.3874 124.105" stroke="#444444" stroke-linecap="round" stroke-linejoin="round"/>
<path d="M72.4449 80.2076C72.9316 81.3528 74.2353 82.0545 75.0887 82.9079C75.6674 83.4866 76.7142 83.8016 77.1598 84.4701C77.5411 85.042 78.2315 85.5031 78.6513 86.0889C79.3717 87.0941 80.3807 87.9724 80.9699 89.0578C81.2888 89.6453 81.6681 90.2784 82.0514 90.832C82.4935 91.4705 82.6814 92.1892 83.3309 92.684C84.0752 93.2512 84.1546 94.1528 84.4477 95.0097C84.7082 95.7711 85.0756 96.4863 85.296 97.2575C85.4665 97.8542 85.8135 98.3632 86.0877 98.9116C86.4668 99.6698 86.6473 100.556 86.9501 101.357C87.5349 102.905 88.1353 104.626 88.3426 106.284C88.4647 107.261 88.8899 108.215 89.0849 109.19C89.2324 109.928 89.2404 110.631 89.2404 111.381" stroke="#444444" stroke-linecap="round" stroke-linejoin="round"/>
</g>
</g>
</svg>
