<svg width="285" height="52" viewBox="0 0 285 52" fill="none" xmlns="http://www.w3.org/2000/svg">
<path d="M0.605072 0.40625H22.5426V10.5312H13.7613V20.125H21.9801V29.75H13.7613V40.875H23.4176V51H0.605072V0.40625Z" fill="#FF0000"/>
<path d="M59.0805 0.40625V51H46.4555V48C45.2472 49.25 43.9763 50.1875 42.643 50.8125C41.3097 51.4375 39.9138 51.75 38.4555 51.75C36.4972 51.75 34.7992 51.2396 33.3617 50.2188C31.9242 49.1771 30.9972 47.9792 30.5805 46.625C30.1847 45.2708 29.9867 43.0625 29.9867 40V20.5938C29.9867 17.4062 30.1847 15.1458 30.5805 13.8125C30.9972 12.4792 31.9347 11.3125 33.393 10.3125C34.8513 9.29167 36.5909 8.78125 38.6117 8.78125C40.1742 8.78125 41.6013 9.0625 42.893 9.625C44.2055 10.1875 45.393 11.0312 46.4555 12.1562V0.40625H59.0805ZM46.4555 19.9688C46.4555 18.4479 46.3201 17.4271 46.0492 16.9062C45.7992 16.3854 45.2888 16.125 44.518 16.125C43.768 16.125 43.2576 16.3646 42.9867 16.8438C42.7367 17.3021 42.6117 18.3438 42.6117 19.9688V40.2812C42.6117 41.9688 42.7367 43.0833 42.9867 43.625C43.2367 44.1458 43.7159 44.4062 44.4242 44.4062C45.2367 44.4062 45.7784 44.1146 46.0492 43.5312C46.3201 42.9271 46.4555 41.4688 46.4555 39.1562V19.9688ZM96.0247 9.53125V51H83.1809L83.3997 47.5625C82.5247 48.9583 81.4413 50.0104 80.1497 50.7188C78.8788 51.4062 77.4101 51.75 75.7434 51.75C73.8476 51.75 72.2747 51.4167 71.0247 50.75C69.7747 50.0833 68.8476 49.1979 68.2434 48.0938C67.6601 46.9896 67.2955 45.8438 67.1497 44.6562C67.0038 43.4479 66.9309 41.0625 66.9309 37.5V9.53125H79.5559V37.75C79.5559 40.9792 79.6497 42.8958 79.8372 43.5C80.0455 44.1042 80.5872 44.4062 81.4622 44.4062C82.3997 44.4062 82.9517 44.0938 83.1184 43.4688C83.3059 42.8438 83.3997 40.8333 83.3997 37.4375V9.53125H96.0247ZM131.969 25.1875H120.063V20.4062C120.063 18.7396 119.927 17.6146 119.656 17.0312C119.385 16.4271 118.885 16.125 118.156 16.125C117.427 16.125 116.938 16.3854 116.688 16.9062C116.438 17.4271 116.313 18.5938 116.313 20.4062V39.9688C116.313 41.4479 116.5 42.5625 116.875 43.3125C117.25 44.0417 117.802 44.4062 118.531 44.4062C119.385 44.4062 119.958 44.0208 120.25 43.25C120.563 42.4792 120.719 41.0208 120.719 38.875V33.9375H131.969C131.948 37.25 131.823 39.7396 131.594 41.4062C131.385 43.0521 130.688 44.75 129.5 46.5C128.333 48.2292 126.802 49.5417 124.906 50.4375C123.01 51.3125 120.667 51.75 117.875 51.75C114.313 51.75 111.49 51.1458 109.406 49.9375C107.323 48.7083 105.844 47 104.969 44.8125C104.115 42.6042 103.688 39.4792 103.688 35.4375V23.6562C103.688 20.1354 104.042 17.4792 104.75 15.6875C105.458 13.8958 106.969 12.3021 109.281 10.9062C111.594 9.48958 114.406 8.78125 117.719 8.78125C121.01 8.78125 123.823 9.47917 126.156 10.875C128.49 12.2708 130.042 14.0312 130.813 16.1562C131.583 18.2812 131.969 21.2917 131.969 25.1875ZM150.538 25.5938H138.694V22.8125C138.694 19.6042 139.059 17.1354 139.788 15.4062C140.538 13.6562 142.028 12.1146 144.257 10.7812C146.486 9.44792 149.382 8.78125 152.944 8.78125C157.215 8.78125 160.434 9.54167 162.6 11.0625C164.767 12.5625 166.069 14.4167 166.507 16.625C166.944 18.8125 167.163 23.3333 167.163 30.1875V51H154.882V47.3125C154.111 48.7917 153.111 49.9062 151.882 50.6562C150.673 51.3854 149.225 51.75 147.538 51.75C145.33 51.75 143.298 51.1354 141.444 49.9062C139.611 48.6562 138.694 45.9375 138.694 41.75V38.3438C138.694 35.2396 139.184 33.125 140.163 32C141.142 30.875 143.569 29.5625 147.444 28.0625C151.59 26.4375 153.809 25.3438 154.1 24.7812C154.392 24.2188 154.538 23.0729 154.538 21.3438C154.538 19.1771 154.371 17.7708 154.038 17.125C153.725 16.4583 153.194 16.125 152.444 16.125C151.59 16.125 151.059 16.4062 150.85 16.9688C150.642 17.5104 150.538 18.9375 150.538 21.25V25.5938ZM154.538 31.2812C152.517 32.7604 151.34 34 151.007 35C150.694 36 150.538 37.4375 150.538 39.3125C150.538 41.4583 150.673 42.8438 150.944 43.4688C151.236 44.0938 151.798 44.4062 152.632 44.4062C153.423 44.4062 153.934 44.1667 154.163 43.6875C154.413 43.1875 154.538 41.8958 154.538 39.8125V31.2812ZM188.326 4V10.5312H191.732V17.0938H188.326V39.2812C188.326 42.0104 188.461 43.5312 188.732 43.8438C189.024 44.1562 190.201 44.3125 192.263 44.3125V51H187.17C184.295 51 182.243 50.8854 181.013 50.6562C179.784 50.4062 178.701 49.8542 177.763 49C176.826 48.125 176.243 47.1354 176.013 46.0312C175.784 44.9062 175.67 42.2812 175.67 38.1562V17.0938H172.951V10.5312H175.67V4H188.326ZM211.02 0.40625V7H198.02V0.40625H211.02ZM211.02 9.53125V51H198.02V9.53125H211.02ZM247.652 24.0938V34.25C247.652 37.9792 247.464 40.7188 247.089 42.4688C246.714 44.1979 245.912 45.8229 244.683 47.3438C243.454 48.8438 241.87 49.9583 239.933 50.6875C238.016 51.3958 235.808 51.75 233.308 51.75C230.516 51.75 228.152 51.4479 226.214 50.8438C224.277 50.2188 222.766 49.2917 221.683 48.0625C220.62 46.8125 219.86 45.3125 219.402 43.5625C218.943 41.7917 218.714 39.1458 218.714 35.625V25C218.714 21.1458 219.131 18.1354 219.964 15.9688C220.798 13.8021 222.298 12.0625 224.464 10.75C226.631 9.4375 229.402 8.78125 232.777 8.78125C235.61 8.78125 238.037 9.20833 240.058 10.0625C242.1 10.8958 243.673 11.9896 244.777 13.3438C245.881 14.6979 246.631 16.0938 247.027 17.5312C247.443 18.9688 247.652 21.1562 247.652 24.0938ZM235.027 20.9688C235.027 18.8438 234.912 17.5104 234.683 16.9688C234.454 16.4062 233.964 16.125 233.214 16.125C232.464 16.125 231.964 16.4062 231.714 16.9688C231.464 17.5104 231.339 18.8438 231.339 20.9688V39.6875C231.339 41.6458 231.464 42.9271 231.714 43.5312C231.964 44.1146 232.454 44.4062 233.183 44.4062C233.933 44.4062 234.423 44.1354 234.652 43.5938C234.902 43.0521 235.027 41.8854 235.027 40.0938V20.9688ZM268.19 9.53125L267.971 13.3438C268.888 11.8229 270.002 10.6875 271.315 9.9375C272.648 9.16667 274.179 8.78125 275.908 8.78125C278.075 8.78125 279.846 9.29167 281.221 10.3125C282.596 11.3333 283.481 12.625 283.877 14.1875C284.273 15.7292 284.471 18.3125 284.471 21.9375V51H271.846V22.2812C271.846 19.4271 271.752 17.6875 271.565 17.0625C271.377 16.4375 270.856 16.125 270.002 16.125C269.106 16.125 268.544 16.4896 268.315 17.2188C268.086 17.9271 267.971 19.8438 267.971 22.9688V51H255.346V9.53125H268.19Z" fill="black"/>
</svg>
