<svg width="352" height="57" viewBox="0 0 352 57" fill="none" xmlns="http://www.w3.org/2000/svg">
<path d="M40.8383 0.40625V51H29.3383V16.8438L24.7446 51H16.5883L11.7446 17.625V51H0.244583V0.40625H17.2758C17.7758 3.44792 18.3071 7.03125 18.8696 11.1562L20.6821 24.0312L23.6821 0.40625H40.8383Z" fill="#FF0000"/>
<path d="M77.8138 24.0938V34.25C77.8138 37.9792 77.6263 40.7188 77.2513 42.4688C76.8763 44.1979 76.0742 45.8229 74.845 47.3438C73.6158 48.8438 72.0325 49.9583 70.095 50.6875C68.1783 51.3958 65.97 51.75 63.47 51.75C60.6783 51.75 58.3138 51.4479 56.3763 50.8438C54.4388 50.2188 52.9283 49.2917 51.845 48.0625C50.7825 46.8125 50.0221 45.3125 49.5638 43.5625C49.1054 41.7917 48.8763 39.1458 48.8763 35.625V25C48.8763 21.1458 49.2929 18.1354 50.1263 15.9688C50.9596 13.8021 52.4596 12.0625 54.6263 10.75C56.7929 9.4375 59.5638 8.78125 62.9388 8.78125C65.7721 8.78125 68.1992 9.20833 70.22 10.0625C72.2617 10.8958 73.8346 11.9896 74.9388 13.3438C76.0429 14.6979 76.7929 16.0938 77.1888 17.5312C77.6054 18.9688 77.8138 21.1562 77.8138 24.0938ZM65.1888 20.9688C65.1888 18.8438 65.0742 17.5104 64.845 16.9688C64.6158 16.4062 64.1263 16.125 63.3763 16.125C62.6263 16.125 62.1263 16.4062 61.8763 16.9688C61.6263 17.5104 61.5013 18.8438 61.5013 20.9688V39.6875C61.5013 41.6458 61.6263 42.9271 61.8763 43.5312C62.1263 44.1146 62.6158 44.4062 63.345 44.4062C64.095 44.4062 64.5846 44.1354 64.8138 43.5938C65.0638 43.0521 65.1888 41.8854 65.1888 40.0938V20.9688ZM98.1329 0.40625V12.375C99.1746 11.1667 100.331 10.2708 101.602 9.6875C102.893 9.08333 104.289 8.78125 105.789 8.78125C107.518 8.78125 109.018 9.05208 110.289 9.59375C111.56 10.1354 112.529 10.8958 113.195 11.875C113.862 12.8542 114.258 13.8125 114.383 14.75C114.529 15.6875 114.602 17.6875 114.602 20.75V39.4375C114.602 42.4792 114.393 44.75 113.977 46.25C113.581 47.7292 112.633 49.0208 111.133 50.125C109.633 51.2083 107.852 51.75 105.789 51.75C104.31 51.75 102.925 51.4271 101.633 50.7812C100.362 50.1354 99.1954 49.1667 98.1329 47.875L97.3204 51H85.5079V0.40625H98.1329ZM101.977 21.3125C101.977 19.1667 101.841 17.7708 101.57 17.125C101.3 16.4583 100.768 16.125 99.9767 16.125C99.2058 16.125 98.7058 16.4167 98.4767 17C98.2475 17.5625 98.1329 19 98.1329 21.3125V39.1875C98.1329 41.4167 98.2579 42.8438 98.5079 43.4688C98.7788 44.0938 99.2996 44.4062 100.07 44.4062C100.862 44.4062 101.373 44.0833 101.602 43.4375C101.852 42.7917 101.977 41.2396 101.977 38.7812V21.3125ZM135.265 0.40625V7H122.265V0.40625H135.265ZM135.265 9.53125V51H122.265V9.53125H135.265ZM156.334 0.40625V51H143.334V0.40625H156.334ZM192.997 31H176.653V39.9688C176.653 41.8438 176.788 43.0521 177.059 43.5938C177.33 44.1354 177.851 44.4062 178.622 44.4062C179.58 44.4062 180.215 44.0521 180.528 43.3438C180.861 42.6146 181.028 41.2188 181.028 39.1562V33.6875H192.997V36.75C192.997 39.3125 192.83 41.2812 192.497 42.6562C192.184 44.0312 191.434 45.5 190.247 47.0625C189.059 48.625 187.549 49.8021 185.715 50.5938C183.903 51.3646 181.622 51.75 178.872 51.75C176.205 51.75 173.851 51.3646 171.809 50.5938C169.768 49.8229 168.174 48.7708 167.028 47.4375C165.903 46.0833 165.122 44.6042 164.684 43C164.247 41.375 164.028 39.0208 164.028 35.9375V23.8438C164.028 20.2188 164.518 17.3646 165.497 15.2812C166.476 13.1771 168.08 11.5729 170.309 10.4688C172.538 9.34375 175.101 8.78125 177.997 8.78125C181.538 8.78125 184.455 9.45833 186.747 10.8125C189.059 12.1458 190.674 13.9271 191.59 16.1562C192.528 18.3646 192.997 21.4792 192.997 25.5V31ZM180.34 24.25V21.2188C180.34 19.0729 180.226 17.6875 179.997 17.0625C179.768 16.4375 179.299 16.125 178.59 16.125C177.715 16.125 177.174 16.3958 176.965 16.9375C176.757 17.4583 176.653 18.8854 176.653 21.2188V24.25H180.34ZM238.573 0.40625L246.104 51H232.635L231.979 41.9062H227.26L226.479 51H212.854L219.541 0.40625H238.573ZM231.604 32.9375C230.937 27.2083 230.27 20.1354 229.604 11.7188C228.27 21.3854 227.437 28.4583 227.104 32.9375H231.604ZM264.329 9.53125L264.11 13.1875C265.235 11.7083 266.475 10.6042 267.829 9.875C269.183 9.14583 270.662 8.78125 272.267 8.78125C274.225 8.78125 275.912 9.3125 277.329 10.375C278.767 11.4167 279.662 12.625 280.017 14C280.371 15.375 280.548 17.7083 280.548 21V38.4688C280.548 42.2396 280.319 44.9271 279.86 46.5312C279.423 48.1146 278.506 49.3854 277.11 50.3438C275.735 51.2812 274.069 51.75 272.11 51.75C270.548 51.75 269.1 51.3854 267.767 50.6562C266.433 49.9271 265.215 48.8438 264.11 47.4062V56.9062H251.485V9.53125H264.329ZM267.923 21.5938C267.923 19.0312 267.829 17.4792 267.642 16.9375C267.454 16.3958 266.933 16.125 266.079 16.125C265.246 16.125 264.704 16.4375 264.454 17.0625C264.225 17.6875 264.11 19.1979 264.11 21.5938V38.7812C264.11 41.2812 264.235 42.8438 264.485 43.4688C264.735 44.0938 265.277 44.4062 266.11 44.4062C266.923 44.4062 267.423 44.125 267.61 43.5625C267.819 42.9792 267.923 41.5833 267.923 39.375V21.5938ZM301.086 9.53125L300.867 13.1875C301.992 11.7083 303.232 10.6042 304.586 9.875C305.94 9.14583 307.419 8.78125 309.023 8.78125C310.982 8.78125 312.669 9.3125 314.086 10.375C315.523 11.4167 316.419 12.625 316.773 14C317.127 15.375 317.305 17.7083 317.305 21V38.4688C317.305 42.2396 317.075 44.9271 316.617 46.5312C316.18 48.1146 315.263 49.3854 313.867 50.3438C312.492 51.2812 310.825 51.75 308.867 51.75C307.305 51.75 305.857 51.3854 304.523 50.6562C303.19 49.9271 301.971 48.8438 300.867 47.4062V56.9062H288.242V9.53125H301.086ZM304.68 21.5938C304.68 19.0312 304.586 17.4792 304.398 16.9375C304.211 16.3958 303.69 16.125 302.836 16.125C302.002 16.125 301.461 16.4375 301.211 17.0625C300.982 17.6875 300.867 19.1979 300.867 21.5938V38.7812C300.867 41.2812 300.992 42.8438 301.242 43.4688C301.492 44.0938 302.034 44.4062 302.867 44.4062C303.68 44.4062 304.18 44.125 304.367 43.5625C304.575 42.9792 304.68 41.5833 304.68 39.375V21.5938ZM350.78 22.7812H339.593V20.5312C339.593 18.6146 339.478 17.4062 339.249 16.9062C339.04 16.3854 338.499 16.125 337.624 16.125C336.915 16.125 336.384 16.3646 336.03 16.8438C335.676 17.3021 335.499 18 335.499 18.9375C335.499 20.2083 335.582 21.1458 335.749 21.75C335.936 22.3333 336.468 22.9792 337.343 23.6875C338.238 24.3958 340.061 25.4271 342.811 26.7812C346.478 28.5729 348.884 30.2604 350.03 31.8438C351.176 33.4271 351.749 35.7292 351.749 38.75C351.749 42.125 351.311 44.6771 350.436 46.4062C349.561 48.1146 348.093 49.4375 346.03 50.375C343.988 51.2917 341.52 51.75 338.624 51.75C335.415 51.75 332.665 51.25 330.374 50.25C328.103 49.25 326.54 47.8958 325.686 46.1875C324.832 44.4792 324.405 41.8958 324.405 38.4375V36.4375H335.593V39.0625C335.593 41.2917 335.728 42.7396 335.999 43.4062C336.29 44.0729 336.853 44.4062 337.686 44.4062C338.582 44.4062 339.207 44.1875 339.561 43.75C339.915 43.2917 340.093 42.3438 340.093 40.9062C340.093 38.9271 339.863 37.6875 339.405 37.1875C338.926 36.6875 336.478 35.2083 332.061 32.75C328.353 30.6667 326.093 28.7812 325.28 27.0938C324.468 25.3854 324.061 23.3646 324.061 21.0312C324.061 17.7188 324.499 15.2812 325.374 13.7188C326.249 12.1354 327.728 10.9167 329.811 10.0625C331.915 9.20833 334.353 8.78125 337.124 8.78125C339.874 8.78125 342.207 9.13542 344.124 9.84375C346.061 10.5312 347.54 11.4479 348.561 12.5938C349.603 13.7396 350.228 14.8021 350.436 15.7812C350.665 16.7604 350.78 18.2917 350.78 20.375V22.7812Z" fill="black"/>
</svg>
