<svg width="97" height="96" viewBox="0 0 97 96" fill="none" xmlns="http://www.w3.org/2000/svg">
<mask id="mask0" mask-type="alpha" maskUnits="userSpaceOnUse" x="0" y="0" width="97" height="96">
<rect x="0.0413208" width="96" height="96" rx="20" fill="#EEEEEE"/>
</mask>
<g mask="url(#mask0)">
<rect width="96" height="96" fill="#EB5757"/>
<mask id="mask1" mask-type="alpha" maskUnits="userSpaceOnUse" x="0" y="0" width="96" height="96">
<rect width="96" height="96" fill="#C4C4C4"/>
</mask>
<g mask="url(#mask1)">
<path d="M81.0995 76.0948L27.0711 22.0663H13.763L12.8531 72.1137L39.5829 98.8436H81.0995V76.0948Z" fill="#D54A4A"/>
<path fill-rule="evenodd" clip-rule="evenodd" d="M19.9642 20.9294C16.731 20.9409 13.2323 21.1665 12.5893 22.8199C12.3541 23.4248 12.2606 24.33 12.1553 25.3503C11.891 27.9098 11.552 31.1932 8.71277 32.2749C11.9915 35.1893 17.3759 35.9982 19.9642 36.0537V36.0569C20.0104 36.0569 20.0577 36.0566 20.1062 36.056C20.1545 36.0566 20.2017 36.0569 20.2478 36.0569V36.0537C22.8362 35.9982 28.2205 35.1893 31.4993 32.2749C28.66 31.1932 28.321 27.9098 28.0568 25.3503C27.9514 24.33 27.858 23.4248 27.6227 22.8199C26.9797 21.1665 23.4811 20.9409 20.2478 20.9294V20.9289C20.2004 20.9289 20.1529 20.9289 20.1053 20.929C20.0582 20.9289 20.0112 20.9289 19.9642 20.9289V20.9294Z" fill="white"/>
<path fill-rule="evenodd" clip-rule="evenodd" d="M19.9642 73.7227C16.731 73.7112 13.2323 73.4856 12.5893 71.8322C12.3541 71.2273 12.2606 70.3221 12.1553 69.3018C11.891 66.7423 11.552 63.4589 8.71277 62.3772C11.9915 59.4628 17.3759 58.6539 19.9642 58.5984V58.5952C20.0105 58.5952 20.0579 58.5955 20.1065 58.5961C20.1547 58.5955 20.2018 58.5952 20.2478 58.5952V58.5984C22.8362 58.6539 28.2205 59.4628 31.4993 62.3772C28.66 63.4589 28.321 66.7423 28.0568 69.3018C27.9514 70.3221 27.858 71.2273 27.6227 71.8322C26.9797 73.4856 23.4811 73.7112 20.2478 73.7227V73.7232C20.1997 73.7232 20.1514 73.7232 20.1031 73.7231C20.0567 73.7232 20.0104 73.7232 19.9642 73.7232V73.7227Z" fill="white"/>
<path d="M33.863 48.5552C33.863 48.2941 34.0747 48.0825 34.3358 48.0825V48.0825C34.5969 48.0825 34.8085 48.2941 34.8085 48.5552V55.9301C34.8085 56.1912 34.5969 56.4028 34.3358 56.4028V56.4028C34.0747 56.4028 33.863 56.1912 33.863 55.9301V48.5552Z" fill="white"/>
<path d="M5.68719 37.699C5.68719 33.9299 8.74269 30.8744 12.5118 30.8744H27.4166C31.1857 30.8744 34.2412 33.9299 34.2412 37.699V56.9531C34.2412 60.7222 31.1857 63.7777 27.4166 63.7777H12.5118C8.74269 63.7777 5.68719 60.7222 5.68719 56.9531V37.699Z" fill="white"/>
<path d="M6.4436 37.5071C6.4436 34.3661 8.98985 31.8199 12.1308 31.8199H27.7976C30.9386 31.8199 33.4848 34.3661 33.4848 37.5071V57.145C33.4848 60.286 30.9386 62.8322 27.7976 62.8322H12.1308C8.98986 62.8322 6.4436 60.286 6.4436 57.145V37.5071Z" fill="#4F4F4F"/>
<path d="M33.674 37.8711H34.3507C35.2302 37.8711 35.9431 38.584 35.9431 39.4635V42.8972C35.9431 43.7766 35.2302 44.4896 34.3507 44.4896H33.674V37.8711Z" fill="white"/>
<circle cx="20.1327" cy="47.2038" r="2.8436" fill="#EB5757"/>
<circle cx="20.1327" cy="39.2417" r="2.8436" fill="#2F80ED"/>
<circle cx="20.1327" cy="55.1659" r="2.8436" fill="#F2994A"/>
<circle cx="26.9573" cy="50.8436" r="2.8436" fill="#F2C94C"/>
<circle cx="26.9573" cy="42.8815" r="2.8436" fill="#C4C4C4"/>
<circle cx="26.9573" cy="42.8815" r="2.8436" fill="#219653"/>
<circle cx="13.3081" cy="50.8436" r="2.8436" fill="#E0E0E0"/>
<circle cx="13.3081" cy="42.8815" r="2.8436" fill="#9B51E0"/>
<path d="M132.512 59.0332L87.583 14.1042H56.5308V81.8957L83.2607 108.626H132.512V59.0332Z" fill="#D54A4A"/>
<path d="M54.1422 21.9182C54.1422 21.6669 54.3459 21.4632 54.5971 21.4632H54.9078C55.1591 21.4632 55.3628 21.6669 55.3628 21.9182V24.0598C55.3628 24.3111 55.1591 24.5148 54.9078 24.5148H54.5971C54.3459 24.5148 54.1422 24.3111 54.1422 24.0598V21.9182Z" fill="white"/>
<path d="M54.1422 28.0213C54.1422 27.77 54.3459 27.5663 54.5971 27.5663H54.9078C55.1591 27.5663 55.3628 27.77 55.3628 28.0213V32.6042C55.3628 32.8555 55.1591 33.0592 54.9078 33.0592H54.5971C54.3459 33.0592 54.1422 32.8555 54.1422 32.6042V28.0213Z" fill="white"/>
<path d="M88.9303 28.0213C88.9303 27.77 89.134 27.5663 89.3853 27.5663H89.696C89.9472 27.5663 90.1509 27.77 90.1509 28.0213V32.6042C90.1509 32.8555 89.9472 33.0592 89.696 33.0592H89.3853C89.134 33.0592 88.9303 32.8555 88.9303 32.6042V28.0213Z" fill="white"/>
<path d="M54.1422 34.5314C54.1422 34.2801 54.3459 34.0764 54.5971 34.0764H54.9078C55.1591 34.0764 55.3628 34.2801 55.3628 34.5314V39.1143C55.3628 39.3656 55.1591 39.5693 54.9078 39.5693H54.5971C54.3459 39.5693 54.1422 39.3656 54.1422 39.1143V34.5314Z" fill="white"/>
<path d="M54.7525 18.4265C54.7525 15.1599 57.4006 12.5118 60.6672 12.5118H83.6259C86.8925 12.5118 89.5406 15.1599 89.5406 18.4265V77.8009C89.5406 81.0675 86.8925 83.7156 83.6259 83.7156H60.6672C57.4006 83.7156 54.7525 81.0675 54.7525 77.8009V18.4265Z" fill="white"/>
<path d="M57.0995 21.8389C57.0995 21.462 57.4051 21.1564 57.782 21.1564H86.673C87.0499 21.1564 87.3555 21.462 87.3555 21.8389V74.3887C87.3555 74.7656 87.0499 75.0711 86.673 75.0711H57.782C57.4051 75.0711 57.0995 74.7656 57.0995 74.3887V21.8389Z" fill="#4F4F4F"/>
<path d="M67.3365 17.4028C67.3365 17.7169 67.0819 17.9715 66.7678 17.9715C66.4537 17.9715 66.199 17.7169 66.199 17.4028C66.199 17.0887 66.4537 16.8341 66.7678 16.8341C67.0819 16.8341 67.3365 17.0887 67.3365 17.4028Z" fill="#4F4F4F"/>
<path d="M68.7014 17.4028C68.7014 17.2144 68.8542 17.0616 69.0426 17.0616H74.9573C75.1458 17.0616 75.2986 17.2144 75.2986 17.4028V17.4028C75.2986 17.5913 75.1458 17.744 74.9573 17.744H69.0426C68.8542 17.744 68.7014 17.5913 68.7014 17.4028V17.4028Z" fill="#4F4F4F"/>
<path d="M74.3887 78.8247C74.3887 80.2695 73.2174 81.4408 71.7725 81.4408C70.3277 81.4408 69.1564 80.2695 69.1564 78.8247C69.1564 77.3798 70.3277 76.2086 71.7725 76.2086C73.2174 76.2086 74.3887 77.3798 74.3887 78.8247Z" fill="#4F4F4F"/>
<path d="M58.4645 27.2986C58.4645 26.5448 59.0756 25.9337 59.8294 25.9337H62.7868C63.5406 25.9337 64.1517 26.5448 64.1517 27.2986V30.2559C64.1517 31.0098 63.5406 31.6209 62.7868 31.6209H59.8294C59.0756 31.6209 58.4645 31.0098 58.4645 30.2559V27.2986Z" fill="#EB5757"/>
<path d="M65.7441 27.2986C65.7441 26.5448 66.3552 25.9337 67.109 25.9337H70.0664C70.8202 25.9337 71.4313 26.5448 71.4313 27.2986V30.2559C71.4313 31.0098 70.8202 31.6209 70.0664 31.6209H67.109C66.3552 31.6209 65.7441 31.0098 65.7441 30.2559V27.2986Z" fill="#F2994A"/>
<path d="M73.0237 27.2986C73.0237 26.5448 73.6348 25.9337 74.3886 25.9337H77.346C78.0998 25.9337 78.7109 26.5448 78.7109 27.2986V30.2559C78.7109 31.0098 78.0998 31.6209 77.346 31.6209H74.3886C73.6348 31.6209 73.0237 31.0098 73.0237 30.2559V27.2986Z" fill="#F2C94C"/>
<path d="M80.3033 27.2986C80.3033 26.5448 80.9144 25.9337 81.6682 25.9337H84.6256C85.3794 25.9337 85.9905 26.5448 85.9905 27.2986V30.2559C85.9905 31.0098 85.3794 31.6209 84.6256 31.6209H81.6682C80.9144 31.6209 80.3033 31.0098 80.3033 30.2559V27.2986Z" fill="#219653"/>
<path d="M58.4645 36.6256C58.4645 35.8718 59.0756 35.2607 59.8294 35.2607H62.7868C63.5406 35.2607 64.1517 35.8718 64.1517 36.6256V39.583C64.1517 40.3368 63.5406 40.9479 62.7868 40.9479H59.8294C59.0756 40.9479 58.4645 40.3368 58.4645 39.583V36.6256Z" fill="#27AE60"/>
<path d="M65.7441 36.6256C65.7441 35.8718 66.3552 35.2607 67.109 35.2607H70.0664C70.8202 35.2607 71.4313 35.8718 71.4313 36.6256V39.583C71.4313 40.3368 70.8202 40.9479 70.0664 40.9479H67.109C66.3552 40.9479 65.7441 40.3368 65.7441 39.583V36.6256Z" fill="#6FCF97"/>
<path d="M73.0237 36.6256C73.0237 35.8718 73.6348 35.2607 74.3886 35.2607H77.346C78.0998 35.2607 78.7109 35.8718 78.7109 36.6256V39.583C78.7109 40.3368 78.0998 40.9479 77.346 40.9479H74.3886C73.6348 40.9479 73.0237 40.3368 73.0237 39.583V36.6256Z" fill="#2F80ED"/>
<path d="M80.3033 36.6256C80.3033 35.8718 80.9144 35.2607 81.6682 35.2607H84.6256C85.3794 35.2607 85.9905 35.8718 85.9905 36.6256V39.583C85.9905 40.3368 85.3794 40.9479 84.6256 40.9479H81.6682C80.9144 40.9479 80.3033 40.3368 80.3033 39.583V36.6256Z" fill="#2D9CDB"/>
<path d="M58.4645 45.9526C58.4645 45.1988 59.0756 44.5877 59.8294 44.5877H62.7868C63.5406 44.5877 64.1517 45.1988 64.1517 45.9526V48.91C64.1517 49.6638 63.5406 50.2749 62.7868 50.2749H59.8294C59.0756 50.2749 58.4645 49.6638 58.4645 48.91V45.9526Z" fill="#56CCF2"/>
<path d="M65.7441 45.9526C65.7441 45.1988 66.3552 44.5877 67.109 44.5877H70.0664C70.8202 44.5877 71.4313 45.1988 71.4313 45.9526V48.91C71.4313 49.6638 70.8202 50.2749 70.0664 50.2749H67.109C66.3552 50.2749 65.7441 49.6638 65.7441 48.91V45.9526Z" fill="#9B51E0"/>
<path d="M73.0237 45.9526C73.0237 45.1988 73.6348 44.5877 74.3886 44.5877H77.346C78.0998 44.5877 78.7109 45.1988 78.7109 45.9526V48.91C78.7109 49.6638 78.0998 50.2749 77.346 50.2749H74.3886C73.6348 50.2749 73.0237 49.6638 73.0237 48.91V45.9526Z" fill="#BB6BD9"/>
<path d="M80.3033 45.9526C80.3033 45.1988 80.9144 44.5877 81.6682 44.5877H84.6256C85.3794 44.5877 85.9905 45.1988 85.9905 45.9526V48.91C85.9905 49.6638 85.3794 50.2749 84.6256 50.2749H81.6682C80.9144 50.2749 80.3033 49.6638 80.3033 48.91V45.9526Z" fill="#F2F2F2"/>
<path d="M58.4645 55.2796C58.4645 54.5258 59.0756 53.9147 59.8294 53.9147H62.7868C63.5406 53.9147 64.1517 54.5258 64.1517 55.2796V58.2369C64.1517 58.9908 63.5406 59.6019 62.7868 59.6019H59.8294C59.0756 59.6019 58.4645 58.9908 58.4645 58.2369V55.2796Z" fill="#E0E0E0"/>
<path d="M65.7441 55.2796C65.7441 54.5258 66.3552 53.9147 67.109 53.9147H70.0664C70.8202 53.9147 71.4313 54.5258 71.4313 55.2796V58.2369C71.4313 58.9908 70.8202 59.6019 70.0664 59.6019H67.109C66.3552 59.6019 65.7441 58.9908 65.7441 58.2369V55.2796Z" fill="#828282"/>
<path d="M73.0237 55.2796C73.0237 54.5258 73.6348 53.9147 74.3886 53.9147H77.346C78.0998 53.9147 78.7109 54.5258 78.7109 55.2796V58.2369C78.7109 58.9908 78.0998 59.6019 77.346 59.6019H74.3886C73.6348 59.6019 73.0237 58.9908 73.0237 58.2369V55.2796Z" fill="#333333"/>
<path d="M80.3033 55.2796C80.3033 54.5258 80.9144 53.9147 81.6682 53.9147H84.6256C85.3794 53.9147 85.9905 54.5258 85.9905 55.2796V58.2369C85.9905 58.9908 85.3794 59.6019 84.6256 59.6019H81.6682C80.9144 59.6019 80.3033 58.9908 80.3033 58.2369V55.2796Z" fill="#EB5757"/>
<path d="M58.4645 68.7014C58.4645 67.9476 59.0756 67.3365 59.8294 67.3365H62.7868C63.5406 67.3365 64.1517 67.9476 64.1517 68.7014V71.6588C64.1517 72.4126 63.5406 73.0237 62.7868 73.0237H59.8294C59.0756 73.0237 58.4645 72.4126 58.4645 71.6588V68.7014Z" fill="#F2994A"/>
<path d="M65.7441 68.7014C65.7441 67.9476 66.3552 67.3365 67.109 67.3365H70.0664C70.8202 67.3365 71.4313 67.9476 71.4313 68.7014V71.6588C71.4313 72.4126 70.8202 73.0237 70.0664 73.0237H67.109C66.3552 73.0237 65.7441 72.4126 65.7441 71.6588V68.7014Z" fill="#F2C94C"/>
<path d="M73.0237 68.7014C73.0237 67.9476 73.6348 67.3365 74.3886 67.3365H77.346C78.0998 67.3365 78.7109 67.9476 78.7109 68.7014V71.6588C78.7109 72.4126 78.0998 73.0237 77.346 73.0237H74.3886C73.6348 73.0237 73.0237 72.4126 73.0237 71.6588V68.7014Z" fill="#219653"/>
<path d="M80.3033 68.7014C80.3033 67.9476 80.9144 67.3365 81.6682 67.3365H84.6256C85.3794 67.3365 85.9905 67.9476 85.9905 68.7014V71.6588C85.9905 72.4126 85.3794 73.0237 84.6256 73.0237H81.6682C80.9144 73.0237 80.3033 72.4126 80.3033 71.6588V68.7014Z" fill="#2F80ED"/>
</g>
</g>
</svg>
