<svg width="96" height="96" viewBox="0 0 96 96" fill="none" xmlns="http://www.w3.org/2000/svg">
<path d="M0 20C0 8.9543 8.9543 0 20 0H76C87.0457 0 96 8.9543 96 20V76C96 87.0457 87.0457 96 76 96H20C8.9543 96 0 87.0457 0 76V20Z" fill="#EEEEEE"/>
<path d="M51.2601 50.6922C49.2178 51.7471 46.7835 50.2646 46.7835 47.9659V47.9659C46.7835 45.6607 49.2304 44.1786 51.2734 45.2466V45.2466C53.4754 46.3976 53.4677 49.5519 51.2601 50.6922V50.6922ZM50.5 35.6875C44.2012 35.6875 39.6671 35.9376 38.3191 36.0218C38.0402 36.0392 37.7653 36.0617 37.4872 36.0896C36.7529 36.1633 35.6213 36.3397 34.5571 37.3111C34.3712 37.4807 34.1971 37.6631 34.0487 37.8663C33.7052 38.3367 33.0884 39.3942 32.8616 41.1518C32.5141 43.8037 32.4996 46.4557 32.4998 46.9096C32.4998 46.9556 32.5 47.0007 32.5 47.0466V49.6409C32.5 49.6868 32.4998 49.7319 32.4998 49.7779C32.4996 50.2318 32.5141 52.8838 32.8616 55.5357C33.1123 57.4627 33.8394 58.5589 34.1474 58.9482C34.2367 59.061 34.3367 59.1651 34.4412 59.2639C35.444 60.2117 36.647 60.435 37.5151 60.5433C38.0156 60.6058 38.5166 60.6621 39.02 60.6939C40.382 60.7801 43.7585 60.9421 50.5 61C56.8596 61 61.4203 60.7309 62.719 60.6446C62.9714 60.6278 63.2217 60.6062 63.4734 60.5818C64.2325 60.5081 65.4428 60.3361 66.5593 59.2646C66.6631 59.165 66.7633 59.061 66.8526 58.9481C67.1606 58.5589 67.8877 57.4627 68.1384 55.5357C68.4859 52.8838 68.5004 50.2319 68.5002 49.7779C68.5002 49.7319 68.5 49.6868 68.5 49.6408V47.0467C68.5 47.0007 68.5002 46.9556 68.5002 46.9096C68.5004 46.4556 68.4859 43.8037 68.1384 41.1518C67.9116 39.3943 67.2949 38.3367 66.9513 37.8663C66.8029 37.6631 66.6288 37.4807 66.4429 37.3111C65.3786 36.3397 64.2471 36.1633 63.5128 36.0896C63.2347 36.0617 62.9598 36.0392 62.6809 36.0218C61.3329 35.9376 56.7988 35.6875 50.5 35.6875Z" fill="#EEEEEE"/>
<path d="M41.6156 55.0492V38.6817L57.0105 46.9143L41.6156 55.0492ZM47.5 27C35.5085 27 27.5566 27.5857 27.5566 27.5857C26.4433 27.7159 23.9941 27.7159 21.8312 30.0587C21.8312 30.0587 20.0818 31.8159 19.5728 35.8508C18.9685 40.569 19.0003 45.2873 19.0003 45.2873V49.7127C19.0003 49.7127 18.9685 54.431 19.5728 59.1492C20.0818 63.1516 21.8312 64.9413 21.8312 64.9413C23.9941 67.2516 26.8568 67.1865 28.1291 67.4143C28.1291 67.4143 32.6776 67.8698 47.5 68C59.4915 68 67.4434 67.3817 67.4434 67.3817C68.5567 67.2516 71.0059 67.2516 73.1688 64.9413C73.1688 64.9413 74.9183 63.1516 75.4272 59.1492C76.0315 54.431 75.9997 49.7127 75.9997 49.7127V45.2873C75.9997 45.2873 76.0315 40.569 75.4272 35.8508C74.9183 31.8159 73.1688 30.0587 73.1688 30.0587C71.0059 27.7159 68.5567 27.7159 67.4434 27.5857C67.4434 27.5857 59.4915 27 47.5 27Z" fill="#FF0000"/>
</svg>
